<?xml version="1.0" encoding="utf-8"?>
<!-- Generator: Adobe Illustrator 23.0.1, SVG Export Plug-In . SVG Version: 6.00 Build 0)  -->
<svg version="1.1" id="Layer_1" xmlns="http://www.w3.org/2000/svg" xmlns:xlink="http://www.w3.org/1999/xlink" x="0px" y="0px"
	 viewBox="0 0 394.5 152.6" style="enable-background:new 0 0 394.5 152.6;" xml:space="preserve">
<style type="text/css">
	.st0{fill:#191919;}
	.st1{fill:#FFFFFF;}
	.st2{fill:#FFFFFF;stroke:#FFFFFF;stroke-width:0.306;}
	.st3{fill:#C6A66D;stroke:#000000;stroke-width:0.5821;stroke-linecap:round;stroke-linejoin:round;stroke-miterlimit:10;}
	.st4{fill:#FFCB16;stroke:#000000;stroke-width:0.5821;stroke-linecap:round;stroke-linejoin:round;stroke-miterlimit:10;}
	.st5{fill:#EF3E41;stroke:#000000;stroke-width:0.5821;stroke-linecap:round;stroke-linejoin:round;stroke-miterlimit:10;}
	.st6{fill:#FFFFFF;stroke:#000000;stroke-width:0.5821;stroke-linecap:round;stroke-linejoin:round;stroke-miterlimit:10;}
	.st7{fill:#3D6DB5;stroke:#000000;stroke-width:0.5821;stroke-linecap:round;stroke-linejoin:round;stroke-miterlimit:10;}
	.st8{fill:#7A744F;stroke:#000000;stroke-width:0.4652;stroke-linecap:round;stroke-miterlimit:10;}
	.st9{fill:none;stroke:#000000;stroke-width:0.4652;stroke-miterlimit:10;}
	.st10{stroke:#000000;stroke-width:0.4652;stroke-miterlimit:10;}
	.st11{fill:#FFFFFF;stroke:#000000;stroke-width:0.4652;stroke-miterlimit:10;}
	.st12{fill:#4488C7;stroke:#000000;stroke-width:0.4652;stroke-miterlimit:10;}
	.st13{fill:#D8D5B8;stroke:#000000;stroke-width:0.5533;stroke-linecap:round;stroke-linejoin:round;stroke-miterlimit:10;}
	.st14{fill:#3D6DB5;stroke:#000000;stroke-width:0.5533;stroke-miterlimit:10;}
	.st15{fill:#F49127;stroke:#000000;stroke-width:0.5533;stroke-miterlimit:10;}
	.st16{fill:none;stroke:#000000;stroke-width:0.5533;stroke-miterlimit:10;}
	.st17{fill:none;}
	.st18{fill:#2CB0DD;stroke:#000000;stroke-width:0.5533;stroke-miterlimit:10;}
	.st19{fill:none;stroke:#000000;stroke-width:0.5821;stroke-linecap:round;stroke-linejoin:round;stroke-miterlimit:10;}
	.st20{fill:none;stroke:#000000;stroke-width:0.5536;stroke-linecap:round;stroke-linejoin:round;stroke-miterlimit:10;}
	.st21{fill:#EF3E41;stroke:#000000;stroke-width:0.5533;stroke-miterlimit:10;}
	.st22{fill:#FFFFFF;stroke:#000000;stroke-width:0.5533;stroke-miterlimit:10;}
	.st23{fill:#C6A66D;stroke:#000000;stroke-width:0.5533;stroke-linecap:round;stroke-linejoin:round;stroke-miterlimit:10;}
	.st24{fill:#FFCB16;stroke:#000000;stroke-width:0.5533;stroke-miterlimit:10;}
	.st25{fill:none;stroke:#000000;stroke-width:0.5533;stroke-linecap:round;stroke-linejoin:round;stroke-miterlimit:10;}
	.st26{fill:#4488C7;stroke:#000000;stroke-width:0.5533;stroke-linejoin:round;stroke-miterlimit:10;}
	.st27{fill:#EF3E41;stroke:#000000;stroke-width:0.5533;stroke-linejoin:round;stroke-miterlimit:10;}
	.st28{fill:none;stroke:#000000;stroke-width:0.5533;stroke-linejoin:round;stroke-miterlimit:10;}
	.st29{fill:#7A744F;stroke:#000000;stroke-width:0.5533;stroke-linecap:round;stroke-miterlimit:10;}
	.st30{stroke:#000000;stroke-width:0.5533;stroke-miterlimit:10;}
	.st31{opacity:0.8;fill:#FFFFFF;stroke:#000000;stroke-width:0.5533;stroke-linejoin:round;stroke-miterlimit:10;}
	.st32{fill:#FFFFFF;stroke:#000000;stroke-width:0.5533;stroke-linejoin:round;stroke-miterlimit:10;}
	.st33{fill:#EF3E41;stroke:#000000;stroke-width:0.5533;stroke-linecap:round;stroke-linejoin:round;stroke-miterlimit:10;}
	.st34{fill:#2DBDB6;stroke:#000000;stroke-width:0.5533;stroke-miterlimit:10;}
	.st35{fill:#CEBB8E;stroke:#000000;stroke-width:0.5098;stroke-linecap:round;stroke-linejoin:round;stroke-miterlimit:10;}
	.st36{fill:none;stroke:#000000;stroke-width:0.5533;stroke-linecap:round;stroke-miterlimit:10;}
	.st37{fill:none;stroke:#000000;stroke-width:0.5098;stroke-linecap:round;stroke-linejoin:round;stroke-miterlimit:10;}
	.st38{stroke:#000000;stroke-width:0.5533;stroke-linecap:round;stroke-miterlimit:10;}
	.st39{fill:#E6B222;stroke:#000000;stroke-width:0.5533;stroke-miterlimit:10;}
</style>
<g>
	<g>
		<g>
			<g>
				<path class="st0" d="M28,102.8c-16.2,0-27-10.9-27-21V22.1c0-10.2,10.9-21,27-21c16.3,0,26.3,10.9,26.3,21v18.5c0,0.6-0.4,1-1,1
					H32.5c-0.6,0-1-0.4-1-1V24.9c0-2.1-1.7-3.1-3.4-3.1c-2.2,0-3.6,1.2-3.6,3.1v53.8c0,1.9,1.4,3.1,3.6,3.1c1.7,0,3.4-1,3.4-3.1
					V63.2c0-0.6,0.4-1,1-1h20.9c0.6,0,1,0.4,1,1v18.5C54.4,91.8,44.4,102.8,28,102.8z"/>
				<path class="st1" d="M28,2c15.3,0,25.3,10.3,25.3,20v18.5H32.5V24.9c0-2.5-2-4.1-4.4-4.1c-2.6,0-4.6,1.6-4.6,4.1v53.8
					c0,2.5,2,4.1,4.6,4.1c2.4,0,4.4-1.6,4.4-4.1V63.2h20.9v18.5c0,9.7-10,20-25.3,20c-15.5,0-26-10.3-26-20V22.1C2,12.4,12.5,2,28,2
					 M28,0C20.3,0,13.2,2.4,7.9,6.8C2.9,11.1,0,16.6,0,22.1v59.6c0,5.5,2.9,11,7.9,15.2c5.3,4.4,12.4,6.8,20.1,6.8
					c16.9,0,27.3-11.4,27.3-22V63.2c0-1.1-0.9-2-2-2H32.5c-1.1,0-2,0.9-2,2v15.6c0,1.5-1.2,2.1-2.4,2.1c-0.6,0-2.6-0.2-2.6-2.1V24.9
					c0-1.9,2-2.1,2.6-2.1c1.1,0,2.4,0.5,2.4,2.1v15.6c0,1.1,0.9,2,2,2h20.9c1.1,0,2-0.9,2-2V22.1C55.4,11.5,45,0,28,0L28,0z"/>
			</g>
			<g>
				<path class="st0" d="M59.4,101c-0.6,0-1-0.4-1-1V27.7c0-0.6,0.4-1,1-1h19.1c0.5,0,0.9,0.4,1,0.8l0.9,5.3
					c2.7-3.2,7.1-6.1,15.9-6.1c0.6,0,1,0.4,1,1v17c0,0.6-0.4,1-1,1c-10.8,0-15.6,5.8-15.6,11.6v42.5c0,0.6-0.4,1-1,1H59.4V101z"/>
				<path class="st1" d="M96.3,27.7v17c-11.1,0-16.5,6.2-16.5,12.7V100H59.4V27.7h19.1l1.3,7.6C82.8,30.8,86.9,27.7,96.3,27.7
					 M96.3,25.7c-6.8,0-11.5,1.5-15.2,5l-0.5-3.3c-0.2-1-1-1.7-2-1.7H59.4c-1.1,0-2,0.9-2,2V100c0,1.1,0.9,2,2,2h20.3
					c1.1,0,2-0.9,2-2V57.5c0-7.3,7.3-10.6,14.6-10.6c1.1,0,2-0.9,2-2v-17C98.3,26.6,97.5,25.7,96.3,25.7L96.3,25.7z"/>
			</g>
			<g>
				<path class="st0" d="M125,102.2c-14.9,0-25.6-7.8-25.6-18.6v-38c0-10.9,10.8-18.7,25.6-18.7c14.8,0,25.6,7.9,25.6,18.7v38
					C150.6,94.2,139.9,102.2,125,102.2z M125,43.9c-1.5,0-3.3,0.4-3.3,2.5v36.2c0,2,1.8,2.5,3.3,2.5c1.3,0,3.4-0.3,3.4-2.5V46.4
					C128.4,44.2,126.3,43.9,125,43.9z"/>
				<path class="st1" d="M125,27.7c13.6,0,24.6,7,24.6,17.7v38c0,10.7-11.1,17.6-24.6,17.6c-13.6,0-24.6-7-24.6-17.6V45.6
					C100.4,34.8,111.4,27.7,125,27.7 M125,86c2.4,0,4.4-1.1,4.4-3.5V46.4c0-2.4-2-3.5-4.4-3.5c-2.4,0-4.3,1.1-4.3,3.5v36.2
					C120.7,84.9,122.6,86,125,86 M125,25.7c-15.4,0-26.6,8.3-26.6,19.7v38c0,11.4,11.2,19.6,26.6,19.6s26.6-8.3,26.6-19.6V45.6
					C151.6,34.1,140.4,25.7,125,25.7L125,25.7z M125,84c-2.3,0-2.3-1-2.3-1.5V46.4c0-0.4,0-1.5,2.3-1.5c1.6,0,2.4,0.5,2.4,1.5v36.2
					C127.4,83.5,126.6,84,125,84L125,84z"/>
			</g>
			<g>
				<path class="st0" d="M178.7,102.2c-15.2,0-24.7-7.1-24.7-18.6v-7.3c0-0.6,0.4-1,1-1h18.5c0.6,0,1,0.4,1,1v6.1
					c0,1.9,1.5,3.1,3.8,3.1c2.4,0,3.7-0.7,3.7-4.3c0-5.2-3.6-7.2-12.5-11.8l-2.4-1.3c-11.4-5.7-12.8-14.1-12.8-20.7
					c0-13.2,8.7-20.5,24.4-20.5c14.4,0,24.1,7.5,24.1,18.7v6.7c0,0.6-0.4,1-1,1h-18.4c-0.6,0-1-0.4-1-1v-5.5c0-1.4-0.4-2.8-3.3-2.8
					c-2.7,0-3.7,1.1-3.7,3.9c0,3.8,1.6,4.6,6.9,7.2c1,0.5,2.2,1.1,3.4,1.7c15.6,7.8,17.5,17.9,17.5,24.9
					C203.2,91.5,196.8,102.2,178.7,102.2z"/>
				<path class="st1" d="M178.7,27.7c13.7,0,23.1,7,23.1,17.7v6.7h-18.4v-5.5c0-2.4-1.3-3.8-4.3-3.8c-3.2,0-4.7,1.4-4.7,4.9
					c0,5.3,3,5.8,10.8,9.8c14.6,7.3,16.9,16.4,16.9,24c0,10.1-6.8,19.4-23.5,19.4c-14.8,0-23.7-7-23.7-17.6v-7.3h18.5v6.1
					c0,2.4,1.8,4.1,4.8,4.1s4.7-1.2,4.7-5.3c0-6.4-4.7-8.3-15.4-13.9c-10-5-12.3-12.1-12.3-19.8C155.3,32.6,166.1,27.7,178.7,27.7
					 M178.7,25.7c-16.4,0-25.4,7.7-25.4,21.5c0,4.8,0.8,8.5,2.6,11.8c2.2,4,5.7,7.2,10.8,9.7c0.8,0.4,1.6,0.9,2.4,1.3
					c9.3,4.8,11.9,6.4,11.9,10.9c0,3.1-1,3.3-2.7,3.3c-0.9,0-2.8-0.2-2.8-2.1v-6.1c0-1.1-0.9-2-2-2h-18.5c-1.1,0-2,0.9-2,2v7.3
					c0,5.9,2.4,10.9,7.1,14.4c4.5,3.4,11,5.2,18.6,5.2c18.8,0,25.5-11.1,25.5-21.4c0-7.2-1.9-17.7-18-25.8c-1.2-0.6-2.4-1.2-3.4-1.7
					c0.2,0.1,0.4,0.1,0.7,0.1h18.4c1.1,0,2-0.9,2-2v-6.7C203.9,33.7,193.8,25.7,178.7,25.7L178.7,25.7z M182.4,53.9
					c-5-2.5-5.9-3.1-5.9-6.1c0-2.5,0.7-2.9,2.7-2.9c2.1,0,2.3,0.8,2.3,1.8v5.5C181.5,53,181.8,53.6,182.4,53.9L182.4,53.9z"/>
			</g>
			<g>
				<path class="st0" d="M230.5,102.2c-15.2,0-24.7-7.1-24.7-18.6v-7.3c0-0.6,0.4-1,1-1h18.5c0.6,0,1,0.4,1,1v6.1
					c0,1.9,1.5,3.1,3.8,3.1c2.4,0,3.7-0.7,3.7-4.3c0-5.2-3.6-7.2-12.5-11.8l-2.4-1.3C207.4,62.3,206,53.9,206,47.3
					c0-13.2,8.7-20.5,24.4-20.5c14.4,0,24.1,7.5,24.1,18.7v6.7c0,0.6-0.4,1-1,1h-18.4c-0.6,0-1-0.4-1-1v-5.5c0-1.4-0.4-2.8-3.3-2.8
					c-2.7,0-3.7,1.1-3.7,3.9c0,3.8,1.6,4.6,6.9,7.2c1,0.5,2.2,1.1,3.4,1.7c15.6,7.8,17.5,17.9,17.5,24.9
					C255,91.5,248.6,102.2,230.5,102.2z"/>
				<path class="st1" d="M230.5,27.7c13.7,0,23.1,7,23.1,17.7v6.7h-18.4v-5.5c0-2.4-1.3-3.8-4.3-3.8c-3.2,0-4.7,1.4-4.7,4.9
					c0,5.3,3,5.8,10.8,9.8c14.6,7.3,16.9,16.4,16.9,24c0,10.1-6.8,19.4-23.5,19.4c-14.8,0-23.7-7-23.7-17.6v-7.3h18.5v6.1
					c0,2.4,1.8,4.1,4.8,4.1c3,0,4.7-1.2,4.7-5.3c0-6.4-4.7-8.3-15.4-13.9c-10-5-12.3-12.1-12.3-19.8
					C207.1,32.6,217.8,27.7,230.5,27.7 M230.5,25.7c-16.4,0-25.4,7.7-25.4,21.5c0,4.8,0.8,8.5,2.6,11.8c2.2,4,5.7,7.2,10.8,9.7
					c0.8,0.4,1.6,0.9,2.4,1.3c9.3,4.8,11.9,6.4,11.9,10.9c0,3.1-1,3.3-2.7,3.3c-0.9,0-2.8-0.2-2.8-2.1v-6.1c0-1.1-0.9-2-2-2h-18.5
					c-1.1,0-2,0.9-2,2v7.3c0,5.9,2.4,10.9,7.1,14.4c4.5,3.4,11,5.2,18.6,5.2c18.8,0,25.5-11.1,25.5-21.4c0-7.2-1.9-17.7-18-25.8
					c-1.2-0.6-2.4-1.2-3.4-1.7l0,0c0.2,0.1,0.4,0.1,0.7,0.1h18.4c1.1,0,2-0.9,2-2v-6.7C255.6,33.7,245.5,25.7,230.5,25.7L230.5,25.7
					z M234.1,53.9c-5-2.5-5.9-3.1-5.9-6.1c0-2.5,0.7-2.9,2.7-2.9c2.1,0,2.3,0.8,2.3,1.8v5.5C233.2,53,233.6,53.6,234.1,53.9
					L234.1,53.9z"/>
			</g>
			<g>
				<path class="st0" d="M259.6,101c-0.6,0-1-0.4-1-1V3.8c0-0.6,0.4-1,1-1h41.8c0.6,0,1,0.4,1,1v17c0,0.6-0.4,1-1,1h-19.5v19.8h14.3
					c0.6,0,1,0.4,1,1v17.7c0,0.6-0.4,1-1,1h-14.3v38.4c0,0.6-0.4,1-1,1h-21.2V101z"/>
				<path class="st1" d="M301.4,3.8v17h-20.5v21.8h15.3v17.7h-15.3v39.4h-21.2v-96H301.4 M301.4,1.8h-41.8c-1.1,0-2,0.9-2,2v96.1
					c0,1.1,0.9,2,2,2h21.2c1.1,0,2-0.9,2-2V62.5h13.3c1.1,0,2-0.9,2-2V42.8c0-1.1-0.9-2-2-2h-13.3V22.9h18.5c1.1,0,2-0.9,2-2v-17
					C303.4,2.7,302.5,1.8,301.4,1.8L301.4,1.8z"/>
			</g>
			<g>
				<path class="st0" d="M306.2,101c-0.6,0-1-0.4-1-1V29c0-0.6,0.4-1,1-1h20.4c0.6,0,1,0.4,1,1v70.8c0,0.6-0.4,1-1,1h-20.4V101z
					 M306.2,21.8c-0.6,0-1-0.4-1-1v-17c0-0.6,0.4-1,1-1h20.4c0.6,0,1,0.4,1,1v17c0,0.6-0.4,1-1,1H306.2z"/>
				<path class="st1" d="M326.6,3.8v17h-20.4v-17L326.6,3.8 M326.6,29v70.8h-20.4V29H326.6 M326.6,1.8h-20.4c-1.1,0-2,0.9-2,2v17
					c0,1.1,0.9,2,2,2h20.4c1.1,0,2-0.9,2-2v-17C328.6,2.7,327.7,1.8,326.6,1.8L326.6,1.8z M326.6,27h-20.4c-1.1,0-2,0.9-2,2v70.8
					c0,1.1,0.9,2,2,2h20.4c1.1,0,2-0.9,2-2V29C328.6,27.9,327.7,27,326.6,27L326.6,27z"/>
			</g>
			<g>
				<path class="st0" d="M360.5,101c-6.3,0-11.7-2-15.6-5.9c-3.5-3.5-5.5-8.2-5.5-13.1V44.5h-7.8c-0.6,0-1-0.4-1-1V29
					c0-0.6,0.4-1,1-1h7.7V16.8c0-0.6,0.4-1,1-1h20.3c0.6,0,1,0.4,1,1V28h9.5c0.6,0,1,0.4,1,1v14.4c0,0.6-0.4,1-1,1h-9.5v35.8
					c0,1.4,1.4,2.5,3.3,2.5h5.3c0.6,0,1,0.4,1,1V100c0,0.6-0.4,1-1,1C370.2,101,360.5,101,360.5,101z"/>
				<path class="st1" d="M360.6,16.8V29h10.5v14.4h-10.5v36.8c0,2,2,3.5,4.3,3.5h5.3V100h-9.7c-12.9,0-20.1-8.9-20.1-18V43.5h-8.8
					V29h8.7V16.8H360.6 M360.6,14.8h-20.3c-1.1,0-2,0.9-2,2V27h-6.7c-1.1,0-2,0.9-2,2v14.4c0,1.1,0.9,2,2,2h6.7v36.5
					c0,5.2,2.1,10.2,5.8,13.8c4.1,4,9.7,6.1,16.3,6.1h9.7c1.1,0,2-0.9,2-2V83.7c0-1.1-0.9-2-2-2h-5.3c-1.1,0-2.3-0.6-2.3-1.5V45.5
					h8.5c1.1,0,2-0.9,2-2V29c0-1.1-0.9-2-2-2h-8.4V16.8C362.6,15.7,361.7,14.8,360.6,14.8L360.6,14.8z"/>
			</g>
		</g>
	</g>
	<circle class="st2" cx="377.4" cy="33.1" r="4.8"/>
	<g>
		<g>
			<path class="st0" d="M59.4,101c-0.6,0-1-0.4-1-1V27.7c0-0.6,0.4-1,1-1h19.1c0.5,0,0.9,0.4,1,0.8l0.9,5.3
				c2.7-3.2,7.1-6.1,15.9-6.1c0.6,0,1,0.4,1,1v17c0,0.6-0.4,1-1,1c-10.8,0-15.6,5.8-15.6,11.6v42.5c0,0.6-0.4,1-1,1H59.4V101z"/>
		</g>
		<g>
			<path class="st1" d="M96.3,27.7v17c-11.1,0-16.5,6.2-16.5,12.7V100H59.4V27.7h19.1l1.3,7.6C82.8,30.8,86.9,27.7,96.3,27.7
				 M96.3,25.7c-6.8,0-11.5,1.5-15.2,5l-0.5-3.3c-0.2-1-1-1.7-2-1.7H59.4c-1.1,0-2,0.9-2,2V100c0,1.1,0.9,2,2,2h20.3
				c1.1,0,2-0.9,2-2V57.5c0-7.3,7.3-10.6,14.6-10.6c1.1,0,2-0.9,2-2v-17C98.3,26.6,97.5,25.7,96.3,25.7L96.3,25.7z"/>
		</g>
	</g>
</g>
<g>
	<path class="st3" d="M268.7,69.2C268.3,69.3,268.7,69.3,268.7,69.2L268.7,69.2z"/>
	<path class="st3" d="M251.2,54.7c1,1.9,1.6,6.2,4.8,6.4c2.2-0.2,2.4-7.5,2.1-9.5c-0.1-1.1-0.3-3.5-0.5-5.5c-1.2-0.1-2-0.1-2-0.1
		s-2.1,0.6-4.4,1.7C250.4,51.1,250.4,53,251.2,54.7z"/>
	<path class="st4" d="M249.9,58.3c0.4,1,0.9,1.9,1.5,2.5c0.7,0.8,1.4,1.2,2.8,1.6c2.3,0.6,3.2,2.3,3.5,3.2c1.1,2.8,1.4,3.9,1.5,4.5
		c0.1,0.6,0.6,1.3,0.1,1.5c2.1,0.5,4.5,0.3,4.8-0.2c0.4-0.6,0.2-15.3-0.4-17.3c-0.6-1.8-2.7-4.8-1.7-7.3c-1.5-0.3-3.1-0.4-4.3-0.5
		c0.1,1.9,0.3,4.3,0.5,5.5c0.3,2-0.1,8.1-2.3,8.3c-3.3-0.2-3.6-3.2-4.6-5.2c-0.9-1.7-0.8-3.6,0-6.9c-0.8,0.4-1.5,0.8-2.3,1.3
		C248.3,51.9,249,56.1,249.9,58.3z"/>
	<path class="st3" d="M249.3,59.3c0-0.5,0.3-0.8,0.5-1c-0.9-2.2-1.6-6.4-0.9-9.3c-0.9,0.6-1.8,1.2-2.5,2c-3.3,3.3-2.1,5.9-1.5,7.8
		c0.6,1.9,2,5.3,2.7,7.2c0.6,1.9,1.5,2.6,0.8,3c1.5,0.2,3.7,0.8,4.8,1.1C251.9,68.1,249.2,60.8,249.3,59.3z"/>
	<path class="st4" d="M275.8,66.2c0-0.1-0.1-0.2-0.1-0.3c-0.5-2-2.4-5.4-3.5-7.5c-0.8-1.4-1.6-3.4-2.5-5.2c0,5-0.6,14.1-0.9,16
		C270,68.9,272.8,68,275.8,66.2z"/>
	<path class="st5" d="M279.1,84.8c-0.2-2.7-0.5-5-0.6-7.9c-0.1-2.8,0.2-5-0.9-6.8c-1-1.7-1.3-2.2-1.8-3.9c-3.1,1.8-5.9,2.7-7.1,3
		c0,0,0,0,0,0c-0.4,2-1,5-2.2,6.5c-1.1,1.3-4.7,0.8-7.7,0c0,0,0,0,0,0c0.8,0.9,0.5,2.2,0.1,4.3c-0.2,1.1-0.4,3.7-0.5,6.3
		c1.5,1.3,3.9,1.6,5.8,1.1c0.4-1.6,0.7-2.8,0.7-3.1c0.3-1.1,5.7-1.4,10.2-3.7c0.2,1.7,2.3,3.5,4,4.5C279.1,85.1,279.1,85,279.1,84.8
		z"/>
	<path class="st3" d="M266.5,75.7c1.2-1.4,1.8-4.5,2.2-6.5c0,0,0,0,0,0c0,0.1-0.4,0.1,0,0c0.4-1.9,0.9-11,0.9-16
		c-0.5-0.9-1-1.7-1.5-2.3c-1.7-2-1.2-2.1-3.7-3.5c-0.6-0.3-1.5-0.6-2.5-0.8c-1,2.5,1.1,5.5,1.7,7.3c0.7,2.1,0.8,16.8,0.4,17.3
		c-0.4,0.5-2.7,0.7-4.8,0.2c-0.2,0.1-0.4,0.1-0.7,0.1c-1-0.1-4.5-0.3-5.4-1.3c0,0,0-0.1-0.1-0.1c-1.2-0.4-3.3-0.9-4.8-1.1
		c0,0,0,0,0,0c-0.7,0.4-2.3,0.2-2.9,0.3c-0.6,0.1-1.6,0.5-0.2,0.9c1.4,0.4,3.4-0.1,2.9,0.6c-0.5,0.6-0.7,0.9-1.7,1.6
		c-0.9,0.7-2.6,0.7-3.2,1.4c-0.6,0.7,0.1,0.5-0.1,1.1c-0.2,0.6-0.2,0.5-0.5,1.2c-0.3,0.7,0.9,0.2,1.8,0.7c0.9,0.5,1.9,0.4,3.1-0.2
		c1.1-0.5,2-0.3,3.4-0.9c1.4-0.6,2.3-2.1,3.1-1.8c0.8,0.3,3.7,0.9,4.6,1.8C261.8,76.5,265.4,77.1,266.5,75.7z"/>
	<g>
		<path class="st6" d="M266.2,132.6C266.2,132.6,266.2,132.6,266.2,132.6C266.2,132.6,266.2,132.6,266.2,132.6
			c0.2,0.4,0.3,0.7,0.4,0.9l-0.1-0.6c0,0,1.8-0.8,2.8-0.4c1,0.4,3.6,0.5,4.6,0.1c1-0.4,2-0.3,2-0.3c-0.2-0.7-0.3-1.4-0.5-2
			c-2.2,0.2-6.5,0.8-9.5,1.4C266,132,266.1,132.3,266.2,132.6z"/>
		<path class="st7" d="M271.5,126.8c-1.6-1.1-3.2-2.2-4.7-1.6c-0.8,2.4-1.3,4.7-1.2,5.5c0.1,0.2,0.2,0.5,0.3,0.9
			c2.9-0.6,7.3-1.1,9.5-1.4c-0.3-1.2-0.7-2.4-1-3.5C273.5,127.8,272.8,127.8,271.5,126.8z"/>
		<path class="st3" d="M269.4,118.3c-0.7,1.3-1.8,4.2-2.6,6.9c1.6-0.6,3.2,0.5,4.7,1.6c1.4,1,2.1,1,2.8,0c-0.2-0.8-0.5-1.5-0.7-2.3
			c-0.6-2.4-1.4-5.1-1.1-9c0.3-3.2-0.9-5.3-1.9-7.2C271.3,112.3,270.6,116.1,269.4,118.3z"/>
		<path class="st6" d="M252.1,136.4c-0.3,0.3-0.6,0.5-0.6,0.9c-0.1,0.5,0.4,0.7,2.5,0.9c2.1,0.2,4.6,0.1,6.4-0.3
			c1.9-0.4,3.3-0.4,4.6-0.6c1-0.2,2-0.6,2-0.6l0.1-1.1c-1.5,0.2-3.6,0.4-5.4,0.8C258.9,136.9,255.6,137,252.1,136.4z"/>
		<path class="st7" d="M265,134.1c-0.4-0.5-2.9-2.5-6.6-2.8c0,0,0,0.1-0.1,0.1c-1,1.4-0.5,1.9-2.8,2.6c-2.2,0.7-2.6,1.6-3.1,2.1
			c-0.1,0.1-0.3,0.2-0.4,0.3c3.5,0.6,6.9,0.5,9.5-0.1c1.8-0.4,3.9-0.6,5.4-0.8l-0.5-2.1c-0.1-0.1-0.2-0.5-0.4-0.9
			C265.9,133.6,265.4,134.5,265,134.1z"/>
		<path class="st3" d="M279.1,85.3c-1.7-1-3.8-2.8-4-4.5c-4.4,2.2-9.9,2.6-10.2,3.7c-0.1,0.3-0.4,1.5-0.7,3.1c0.1,0,0.3-0.1,0.4-0.1
			c-0.1,0-0.3,0.1-0.4,0.1c-1.1,4.6-3,12.8-3.1,13.8c0,1.1,1.1,4,1.2,5.8c0.1,0.1,0.1,0.2,0.2,0.3c0.2,0.7,0.8,3.2,0.3,5.4
			c-0.5,2.1-0.6,7.4-0.6,8.7c-0.1,1.3-0.1,5-1.4,6.5c-1.3,1.5-1.4,2.1-2.3,3.4c3.7,0.3,6.2,2.3,6.6,2.8c0.4,0.4,1.2-1.5,1.2-1.5
			l-0.4-0.9c0,0,0,0,0,0c-0.1-0.3-0.2-0.6-0.3-0.9c-0.1-0.8,0.4-3.1,1.2-5.5c-0.2,0.1-0.2,0.1,0,0c0.8-2.7,1.9-5.6,2.6-6.9
			c1.2-2.2,1.9-6,1.3-10c-0.2-0.4-0.4-0.8-0.6-1.2c-1-2.2-0.8-4.4,0.1-6.2c0.9-1.8,3.7-7,4.2-9.4c0.5-2.4,1-4.2,2.7-4.4
			C278.6,86.9,279.2,87.5,279.1,85.3z"/>
		<path class="st3" d="M264.2,87.5c-1.9,0.4-4.3,0.2-5.8-1.1c-0.1,2.2,0,4.3,0.1,5.6c0.3,2.8,1.6,6.8,1.7,8.4
			c0.1,1.6,0.3,2.7,0.3,3.9c0,1,1.4,2,1.9,2.8c-0.1-1.8-1.2-4.7-1.2-5.8C261.2,100.3,263.1,92.1,264.2,87.5z"/>
	</g>
	<path class="st3" d="M268.2,77.4c-2.2,3.2-3.6,8.2-3.6,8.2"/>
	<path d="M251.8,49.4c0,2-1.1,2.2-2.2,3.7s-2.9,2.5-2.9,4.4s0,3.3-0.2,3.7c-0.2,0.4-1.6-2-2-2.9c-0.4-0.9-1.2-4.9-0.3-6.4
		c0.8-1.5,1.3-2.5,1.2-4.8c0-2.3,0.1-2.2,0.3-4.2s-0.2-4,1.8-4C249.7,38.8,251.8,49.4,251.8,49.4z"/>
	<path class="st3" d="M256.3,47.5c0.4-0.5,0.4-3.1,0.4-5.1s0-2.4-0.6-3.3c-0.6-1-0.7-1.4-1.5-2.4c-0.8-1-4.1-2.8-6.7-1.4
		c-1.2,2.3-1.5,5-1.4,6.9c0.1,1.9,0.1,3.4,1.3,4.8c1.2,1.4,1.4,2.2,2.2,2.7c0.6,0.3,1.6,0.1,2.6-0.2"/>
	<path d="M247.5,35.8c-0.1-2.4,1.3-4.6,4.3-4.5c3,0.1,3.7,0.3,5.8,1.4c2.1,1.1,2.2,2.7,3.4,4c1.2,1.3,1.5,6.2,3.7,8.4
		c2.2,2.2,4.2,4.1,4.8,4.9c0.6,0.9,0.8,1.1,1.2,2.4c-1.8-1.8-3.1-3.3-4.3-3.3c-1.2,0-0.4,2.6,0.3,4.1c0.6,1.5,1.4,4.8,1.3,6.5
		s-0.5,5.4-0.5,6.6c0,1.2-0.5,2.4-1,3.5c-0.5,1.1-2.2-0.6-3.1-1c-0.9-0.3-1.1-0.1-1.8-0.3s-0.9-2.1-1.6-3.8
		c-0.7-1.7-2.5-4.9-3.3-5.5c-0.8-0.6-2.7-3.3-3-5.1c-0.3-1.8-1.2-2.1,0.5-3.6c1.7-1.5,2.5-5.8,2.5-6.1s-0.2-2.9-1.3-4.6
		c-1.1-1.6-2.6-1.2-4.1-2.7C250.4,36.2,249.2,34.3,247.5,35.8z"/>
	<path class="st3" d="M249.7,40.6c-0.5,2.3-0.8,2.8-0.6,3c0.3,0.2,0.6,0.3,0.9,0.3"/>
	<path class="st3" d="M249.6,45.6c0.8,0.1,1.6,0,1.6,0"/>
	<circle cx="252.4" cy="41" r="0.4"/>
	<circle cx="248.2" cy="41" r="0.4"/>
</g>
<g>
	<path class="st8" d="M74,20.3c-1.3-0.2-1.6-1.5-1.7-2.3c-0.1-0.9,1.1-1.2,1.2-0.7"/>
	<path class="st9" d="M63.5,134.9c-0.2,0.5-0.3,1.1-0.3,1.6c0.1,1.3,3,1.8,4.8,1.6c1.8-0.3,3.6-0.3,4-1.1c0.2-0.3,0.1-1-0.1-1.8
		c-1.6,0.7-3.1,0.8-4.3,0.9C66.6,136.1,64.7,135.7,63.5,134.9z"/>
	<path class="st8" d="M66.8,87.3c0.5,2.3,1.1,6.5,0.7,8.5c-0.5,2-2.7,7.4-3,11.4c-0.3,4,0.1,9.2,0.8,12.4c0.6,3.1,0.9,5.9,0.4,7.4
		c1.9-0.8,3.5-1,4.7-0.7c0-0.1-0.1-0.1-0.1-0.2c-0.8-1.6-0.7-5.1,0.1-6.9c0.8-1.8,2.7-6.3,2.1-11.7c-0.7-5.5,1.1-6.8,1.7-8.2
		c0.6-1.4,2-8.1,1.9-10.9c-0.1-1.7-0.1-3.2,0.2-4c-2-0.1-7-0.5-9.8-1.8C66.8,83.3,66.4,85.5,66.8,87.3z"/>
	<path class="st8" d="M90.3,119.4c-0.1-0.3-0.2-0.6-0.2-1c-0.2-2.7,0.6-6.5,0.7-10.5c0.1-4,0.6-5.9-0.2-8.3s1.1-3.5,0.6-5.9
		c-0.6-2.4,0.4-2.2,0.3-6.1c0-1.4-0.2-2.7-0.4-4.1c-2.7,2.8-8,3.5-11.1,1.8c0.9,1.6,1.6,4.8,2.6,7.5c1.1,2.8,2,4.7,2.3,5.3
		c0.3,0.6-0.5,2-0.8,4.7c-0.3,2.7-0.5,4.1,0.5,6.9c1,2.8,0.8,6.3,0.6,8.5c-0.1,0.8-0.2,1.7-0.3,2.6C86.5,122.1,87,119.8,90.3,119.4z
		"/>
	<path class="st10" d="M91,83.5c-0.3-2.5-0.8-4.9-0.8-7.5c0-1.4-0.1-3.1-0.2-4.8c-7.8,0.7-20.9-1.3-24.3-2.6
		c-0.3,3.1-0.7,7.1-0.9,9.5c-0.3,3.1,0.1,4.2,1.2,4.3c0.2,0,0.3,0.1,0.4,0.3c2.9,1.3,7.9,1.7,9.8,1.8c0.2-0.5,0.5-0.7,0.9-0.4
		c1.1,0.7,1.8-0.5,2.7,1.1c0,0.1,0.1,0.1,0.1,0.2C83,87,88.3,86.2,91,83.5z"/>
	<path class="st11" d="M69.7,45.4c0.2,2-1.8,5.3-1.8,5.3c4.5,0.7,11.6-0.9,12.8-1.9c1.2-1,3.8-4.3,4.4-5.2c0.7-0.9,0.7-3.2,1.3-3.2
		c0.7,0,1,0.6,1.4,1.6c0.3,1,0.2,0,1.2-1c1-1,1.3-1.6,1.8-0.9c0.5,0.7,0.5,1.4,0,2.1c-0.5,0.8-0.8,1.5-0.4,1.6
		c0.4,0.1,3.3-0.9,6.4,0.8c-0.1-1.4-0.1-2.8,0.1-4.7c0.3-3.2,0.3-4.8-1.5-6.3c-1.8-1.5-6.6-4.1-8.3-5.3c-0.4-0.3-0.8-0.5-1.2-0.6
		c-3.9,4.1-8.7,3.2-11.9,0.1c-0.1,0.1-0.2,0.1-0.3,0.2c-1.6,0.7-6.5,3.6-8.7,4.6c-2.1,1-3.3,4.1-3.1,6.1s0,4.2-0.6,6.5
		c0,0.2-0.1,0.3-0.1,0.4C65.4,44.6,68.4,44.5,69.7,45.4z"/>
	<path class="st8" d="M85.8,27.7c-1-0.5-1.7-0.6-1.6-2.9c-4.1-1.6-9.1-3.1-9.1-3.1c0,1.8,0.1,5.5-1.2,6.2
		C77,30.8,81.9,31.7,85.8,27.7z"/>
	<path class="st11" d="M90,71.2c-0.2-3-0.6-6.1-0.8-8.1c-0.3-2.9,0.2-7.2,0.3-7.7c-1.2-1.7-1.2-2.7-2.2-3.7c-1-1.2-1.2,0.7-1.8-0.1
		c-0.5-0.7-0.8-1.3-3.6,0.1c-5.1,3.8-12.3,5.5-14.4,5.4c0,0.5-1.1,1.2-1.3,2.7c-0.3,1.6-0.1,3.3-0.3,6.2c0,0.7-0.1,1.6-0.2,2.5
		C69.1,69.9,82.1,71.8,90,71.2z"/>
	<path class="st8" d="M81.9,51.7c2.8-1.4,3.1-0.8,3.6-0.1c0.5,0.7,0.7-1.1,1.8,0.1c0.9,1,0.9,2,2.2,3.7c0,0,0-0.1,0-0.1
		s1.3,1,2.6,1.7c1.3,0.7,3.2-0.1,3.7-2.7c0,0,1.5-4.1,1.1-6.8c-0.1-1.1-0.2-2-0.3-2.9c-3.1-1.7-6-0.7-6.4-0.8
		c-0.5-0.1-0.1-0.8,0.4-1.6c0.5-0.8,0.5-1.5,0-2.1c-0.5-0.7-0.8-0.1-1.8,0.9c-1,1-0.8,2-1.2,1c-0.3-1-0.7-1.6-1.4-1.6
		c-0.7,0-0.7,2.3-1.3,3.2c-0.7,0.9-3.3,4.2-4.4,5.2c-1.2,1-8.3,2.6-12.8,1.9c0,0,2-3.3,1.8-5.3c-1.2-0.9-4.3-0.8-8.5,0.2
		c-0.4,1.9,0.4,2.4,0.6,4.8c0.2,2.5,0.8,5.9,2.1,6.5c1.2,0.7,3.6-0.3,3.6,0.1c0,0,0,0,0,0.1C69.6,57.2,76.8,55.5,81.9,51.7z"/>
	<path class="st12" d="M65.7,127c0,0.1,0,0.1-0.1,0.2c-0.5,1.5-0.5,3.5-1.1,5.2c-0.3,1-0.8,1.8-1,2.5c1.2,0.8,3.2,1.2,4.2,1.2
		c1.2-0.1,2.6-0.2,4.3-0.9c-0.2-1.3-0.7-2.8-0.6-3.9c0.1-1.6-0.3-3.4-1-4.9C69.1,126,67.6,126.2,65.7,127z"/>
	<path class="st12" d="M86.9,126c2.5,0,4.1,1.1,5.8,1.9c1.5,0.7,4.6,0.5,7.1-0.6c-1.3-1.9-2.9-2.5-4.4-3.5c-1.6-1-4.4-2.2-5.2-4.3
		c-3.2,0.3-3.8,2.7-5.6,1.2c-0.3,1.7-0.6,3.3-1.1,4c-0.1,0.1-0.2,0.3-0.3,0.4C83.9,125.9,84.8,126,86.9,126z"/>
	<path class="st9" d="M99.9,127.2c-2.6,1.2-5.6,1.3-7.1,0.6c-1.7-0.8-3.3-1.9-5.8-1.9c-2.1,0-3.1-0.1-3.7-1
		c-0.7,0.9-1.5,1.6-0.8,2.4c0.8,0.9,2,1.2,3.3,1.1c1.4-0.1,4.5-0.3,5.8,0.9c1.3,1.2,4.9,0.8,6.2,0.5c1.3-0.4,2.7-0.5,2.8-1.5
		C100.3,127.9,100.1,127.5,99.9,127.2z"/>
	<path class="st9" d="M69.9,36.1c0.1,3.3-0.7,4.2-0.8,4.8c-0.1,0.6,0.7,3.3,0.6,4.6"/>
	<path class="st9" d="M68,63.5c3.8,0.2,12.5,3.8,13.9,3.6"/>
	<path class="st9" d="M71,59.8c3.1,1.6,4.8,3.5,6.5,3.9"/>
	<path class="st9" d="M70.3,96.2c2.9-0.6,3.6-0.5,4,0.2"/>
	<path class="st9" d="M80.5,35.6c0.3,3.6,0.6,9.2,0.6,10.6"/>
	<path class="st9" d="M65.5,50.9c1.3-0.3,2.9-0.1,2.9-0.1"/>
	<path class="st9" d="M89,34.8c-0.6,4.1-0.1,6.2-0.1,6.2"/>
	<path class="st9" d="M87.3,51.6c-0.2,3.1-0.3,7.8,0.3,11"/>
	<path class="st9" d="M81.4,79.2c2.7,1,6.8,0.5,6.8,0.5"/>
	<path class="st8" d="M81,25.8c1.5-0.2,3-0.6,3.9-2.9c0.9-2.3-0.2-4.7-0.1-5.9c0.1-1.2,0.2-3.7-1.1-5.2s-3-2.7-5.3-2.1
		s-4.9,1.9-5,5.3c0,0.8,0,1.6,0.1,2.2c0.1,2,0.5,3,0.5,3.2c0.1,0.2,1,3.8,2.2,4.7"/>
	<path class="st9" d="M79.1,19.8c0.8,0.2,1.5,0,1.8-0.2c-0.4-1.4-0.3-3.5-0.3-3.5"/>
	<circle cx="77.7" cy="16.8" r="0.3"/>
	<circle cx="82.4" cy="16.8" r="0.3"/>
	<path class="st9" d="M81,21.1c-0.9-0.1-3.1,0.2-3.1,0.2c0.7,1,1.2,1.2,2.1,1.2"/>
	<path class="st9" d="M87.7,42c-0.3,1.2-1.4,1.9-0.4,1.7c1-0.3,2.2-0.6,1.5,0.2c-0.7,0.8-2.1,1.6-1,1.8c1.1,0.2,1.3,0.7,0.4,1.2
		c-0.9,0.6,0.7,0.7-0.3,1.6c-1,0.8-1.1-0.4-1.5,0.7C86,50.3,86,50.7,86,50.7"/>
	<path class="st9" d="M90.2,43.8c0.4,3.9,1.3,5,4.2,5.4"/>
</g>
<g>
	<path class="st13" d="M310.5,33.3c2.3-0.1,3.3-3.5,0.7-4.4"/>
	<path class="st14" d="M290.9,45.6c0.2,0.9,0.6,1.8,0.8-2.4c0.4-1.2,3.3-2.6,3.3-0.1c0,2.6,0.2,5.2,0.8,5.2c0.7-0.1,1.1-1.2,2.5-2.4
		c1.4-1.2,1.8,0.3,0.2,1.8c-1.2,1.2-3.2,2.7-4,3.4c0.2,0.1,0.3,0.2,0.5,0.3c1.7,0.9,4.1,1.7,4.2,0.5c0.1-1.2-1.5-2.2-0.4-3
		c1.1-0.8,1.9,1.7,2.1,3.3c0.2,1.6,0.1,2.1,1.6,2.9c1.6,0.8,7.4,3.8,8.4,3.7c1-0.1-0.2-4.8,0.7-5.8c3.1-0.1,5.3,1,6.9,2.7
		c0.8-3.1,2-8.2,1.2-10.8c-1-2.4-6.7-4.7-6.7-4.7s-1-0.6-2-1.2c-1,1.9-2.6,3.6-5.2,3.3c-2.7-0.3-4-1.7-4.2-4.1
		c-0.4,0.1-0.8,0.2-1.1,0.3c-2.4,0.8-6.6,1-8.9,3.4c-0.4,0.4-0.8,0.9-1.1,1.4C290.8,43.5,290.8,44.8,290.9,45.6z"/>
	<path class="st14" d="M305.8,79.1c2.8,0.8,7.9,1.5,11,0.2c0-0.1,0-0.2-0.1-0.3c-0.5-2.2-2-12.3-2.2-13.6c-1.6,1.9-2.4,0.6-3,0.1
		c-0.7-0.7-5.4-2.1-7.4-3.9c-2-1.8-5.2-4.6-6.4-4.7c-1,0-2.7-0.1-4.2-0.7c0.1,1,0.1,5.3,0.1,5.3s0.8,4.3,0.4,6.1
		c-0.4,1.8,1,2.5,0.2,4.4c-0.8,2-0.9,1.8-1,3.5c-0.1,1.4,0.4,1.6-0.1,2.5C298.4,77.3,303.1,78.3,305.8,79.1z"/>
	<path class="st15" d="M318.2,91.1c0-0.6,0-0.9,0-0.9s-0.8-8.1-1.3-10.9c-3.1,1.3-8.2,0.6-11-0.2c-2.7-0.8-7.4-1.8-12.6-1.2
		c-0.1,0.2-0.3,0.4-0.5,0.7c-1.3,1.5-0.7,3-0.3,4.3c0.4,1.3,0.1,3.7-0.1,4.6c0,0.1-0.1,0.3-0.1,0.5c5-1,10.2-0.7,12,0.7
		c0.2-0.8,0.4-1.5,0.7-1.6c0.7-0.1,0.2,2.4,0.9,3.7C308.6,92.5,313.7,92.8,318.2,91.1z"/>
	<path class="st16" d="M298.5,84.2c5.5,1.1,9.8,5.2,14.5,5.2"/>
	<path class="st16" d="M314.2,47.3c-0.4,2.3-2.5,4.3-2.6,5.8"/>
	<path class="st17" d="M290.7,50.6c0.1-0.1,0.2-0.3,0.3-0.4C290.8,50.3,290.7,50.4,290.7,50.6C290.6,50.6,290.7,50.6,290.7,50.6z"/>
	<path class="st17" d="M290.2,43.5c-0.1,0.1-0.2,0.3-0.2,0.6c0.2-0.3,0.3-0.5,0.5-0.7C290.3,43.4,290.3,43.4,290.2,43.5z"/>
	<path class="st13" d="M290.5,50.7c-1,0.3-2.9,1-5,2c-0.9,1.4-2.2,3.5-2.5,4.1c-0.5,0.9-0.8,2.5-0.6,3.2c0.2,0.7,0.4,1.4,1,1.3
		c0.5-0.1,3-0.5,4.1-1.6c0.9-1,3-4.7,3.4-5.5C290.4,53,289.9,51.8,290.5,50.7z"/>
	<path class="st13" d="M290.6,50.5c0.1-0.1,0.2-0.2,0.3-0.3c1.2-1.1,2.1,0,3.6,0.9c0.8-0.6,2.8-2.2,4-3.4c1.6-1.5,1.2-3-0.2-1.8
		c-1.4,1.2-1.8,2.3-2.5,2.4c-0.7,0.1-0.8-2.6-0.8-5.2c0-2.6-2.9-1.1-3.3,0.1c-0.2,4.2-0.6,3.3-0.8,2.4c-0.1-0.8-0.2-2.1-0.5-2.2
		c-0.2,0.2-0.3,0.5-0.5,0.7C289.8,45.3,290.1,47.9,290.6,50.5z"/>
	<path class="st14" d="M290.6,50.5c-0.5-2.6-0.9-5.2-0.7-6.4c-1.8,3-3.5,7.1-3.5,7.1s-0.4,0.7-1,1.5c2.1-1,4.1-1.7,5-2
		C290.6,50.7,290.6,50.6,290.6,50.5z"/>
	<path class="st13" d="M304.2,61.5c2,1.8,6.7,3.2,7.4,3.9c0.6,0.5,1.4,1.8,3-0.1c0-0.1,0-0.2,0-0.2s2.8-5.5,3.3-7.3
		c0.1-0.4,0.3-1.2,0.6-2.1c-1.6-1.6-3.8-2.8-6.9-2.7c-0.8,0.9,0.4,5.7-0.7,5.8c-1,0.1-6.8-2.9-8.4-3.7c-1.6-0.8-1.4-1.3-1.6-2.9
		c-0.2-1.6-1-4.1-2.1-3.3c-1.1,0.8,0.5,1.9,0.4,3c-0.1,1.2-2.5,0.3-4.2-0.5c-0.2-0.1-0.3-0.2-0.5-0.3c-0.1,0.1-0.2,0.1-0.2,0.1
		s0.1,0,0.2-0.1c-1.4-0.9-2.4-2-3.6-0.9c-0.1,0.1-0.2,0.3-0.3,0.4c0,0,0,0.1,0,0.1c0,0-0.1,0-0.1,0c-0.6,1-0.1,2.3,0.3,3.4
		c0.1-0.1,0.1-0.2,0.1-0.2s2.6,1.4,2.7,2c0,0,0,0.1,0,0.1c1.5,0.6,3.1,0.7,4.2,0.7C299.1,56.9,302.2,59.7,304.2,61.5z"/>
	<path class="st16" d="M290.5,50.7c0,0,0.1-0.1,0.1-0.1c0,0,0,0,0,0C290.6,50.6,290.6,50.7,290.5,50.7z"/>
	<path class="st16" d="M290.5,50.7c0.1,0,0.1,0,0.1,0c0,0,0-0.1,0-0.1C290.6,50.7,290.5,50.7,290.5,50.7z"/>
	<path class="st13" d="M305.7,42.4c2.6,0.3,4.2-1.4,5.2-3.3c-0.7-0.4-1.5-0.8-1.9-1c-0.9-0.4-4.9-0.4-7.5,0.2
		C301.7,40.7,303,42.1,305.7,42.4z"/>
	<path class="st13" d="M317.8,127.8c-0.9-1.3-0.1-4.9,0.3-6.8c0.5-2,1.9-7.9,0.2-12.3c-1.8-4.4-0.2-7.2-0.1-9.8c0.1-2,0-6,0-7.8
		c-4.5,1.8-9.6,1.4-12.3-0.2c0,0,0,0.1,0.1,0.1c0.8,1.3,1.2,3.6,2.7,6.4c1.5,2.9,2.6,8.6,2.6,8.6s1.4,3.9,1.2,4.8
		c-0.2,0.9-1.2,5.5-0.2,7.8c1,2.2,1.6,5.9,1.3,9.1c0,0.2-0.1,0.4-0.1,0.7C315.2,127.9,316.7,127.6,317.8,127.8z"/>
	<path class="st13" d="M292.3,88c-0.3,1.8-0.7,6.9-0.2,8.9c0.5,2.2,1.6,6.4,0.7,8.2s-1.3,8.4-0.7,12.5c0.6,4.1,1.8,11.4,1.9,12.8
		c0,0.8,0,1.5-0.1,2.1c1.6-0.4,3.1-0.1,4.3,0.3c-0.2-0.7-0.5-1.4-0.6-2.1c-0.3-2-0.2-7.5,0.4-9.7c0.7-2.2,1.8-5.1,0.9-7.9
		c-0.9-2.8-0.4-4.2-0.1-5.7c0.3-1.5,1.4-5.2,1.4-6.5c0.1-1.3,2.7-8.4,3.4-9.9c0.3-0.7,0.5-1.5,0.6-2.3C302.4,87.3,297.3,87,292.3,88
		z"/>
	<path class="st16" d="M296.5,139.7c-1.1,1.6-2,0.4-3,0.2c-0.8-0.2-2.1,0.5-3.1,0.5c-0.2,0.5-0.1,1,0.4,1.2c0.8,0.3,4.4,0.4,5.2,0.2
		c0.8-0.3,0.9-1.9,1.7-2.4c0.8-0.5,1.7-0.4,1.5-2.6C298.8,138,297.4,138.4,296.5,139.7z"/>
	<path class="st18" d="M293.9,132.5c-0.1,0.5-0.2,0.9-0.4,1.3c-0.5,0.9-0.6,0.9-0.9,2.5c-0.3,1.6-0.8,2.6-1.6,3.3
		c-0.2,0.2-0.4,0.5-0.5,0.7c1-0.1,2.3-0.7,3.1-0.5c0.9,0.3,1.9,1.5,3-0.2c0.9-1.3,2.3-1.7,2.7-2.9c0,0,0-0.1,0-0.1
		c-0.1-1.5-0.7-2.7-1.1-3.9C297,132.4,295.5,132.1,293.9,132.5z"/>
	<path class="st16" d="M319.5,135.1c-1.8,0.6-3.2,1.4-3.6-0.2c-0.3-1.3-0.8-1.9-3.1-2c-0.1,0.5-0.1,1,0,1.3c0.3,1.2,1.7,0.1,1.9,1.2
		c0.2,1.1,0.9,2.1,2.3,1.9c1.4-0.3,5.9-0.2,5.9-0.2c0-0.4,0-0.8,0-1.1C321.6,135.4,321.3,134.5,319.5,135.1z"/>
	<path class="st18" d="M321.6,133c-1.6-1.2-2.2-4.1-3.5-5c-0.1-0.1-0.2-0.2-0.3-0.3c-1.2-0.2-2.6,0.1-4.4,0.6
		c-0.2,1.9-0.6,3.5-0.7,4.6c2.3,0.1,2.8,0.7,3.1,2c0.4,1.5,1.8,0.8,3.6,0.2c1.7-0.6,2.1,0.3,3.5,1C323.1,134.6,322.9,134,321.6,133z
		"/>
	<path class="st16" d="M293.1,102.8c2.5-1.2,3.4-0.8,3.5,0.5"/>
	<path class="st16" d="M317.5,105.9c0.2,1.6-0.7,5.1-0.7,5.1"/>
	<path d="M302,30.3c-0.6-2.6-0.8-5.5,0.2-7.1c1.1-1.6,3.6-2.7,4.3-2.5s5.9,2,6.1,4.5c0.3,2.5-0.6,3.8-0.7,5
		c-0.1,1.2-0.9-0.8-0.9-0.8L302,30.3z"/>
	<path class="st13" d="M307.6,40c-0.5,0.2-1.2,0.4-1.9,0.1c-1.7-0.6-2.4-1.9-3.1-4.7c-0.7-2.8-0.6-6-0.2-9c0.7-1.1,2.5-1.4,4.1-1.1
		s4.3,0,4.5,1.6s-0.7,8.5-0.9,9.7c-0.3,1.2-0.1,2.7-0.1,2.7"/>
	<path class="st19" d="M305,36.3c0.6,0.1,1.9,0,1.9,0"/>
	<path class="st20" d="M305.3,31.2c-0.2,2-0.2,2.7-0.2,3.1c0,0.4,1.1,0.4,1.1,0.4"/>
	<circle cx="307.7" cy="31.2" r="0.4"/>
	<circle cx="304" cy="31.3" r="0.4"/>
</g>
<ellipse cx="198" cy="149" rx="14.6" ry="1.6"/>
<g>
	<path d="M135.5,16.7c0.3-1.5-0.7-3.2-3.1-4s-3.9-1.6-5.3-1.5c-1.4,0.1-1.3-0.2-2.3,0.6c-1.1,0.9-0.7,1.4-1.7,1.8
		c-1,0.4-2.6,1.3-1.9,3.4c0.7,2,0,3.5,1.1,4.2c1,0.6,3.1,1.2,4.4,0C127.9,20.1,135.5,16.7,135.5,16.7z"/>
	<path class="st16" d="M120.9,134c-1.7-0.6-2.1-1.1-3.4-0.2c-1.1,0.8-2.1,0.8-3.4-0.7c0,0.1,0,0.2,0,0.3c0,1.3,1.6,2.1,3.1,2.2
		c1.5,0,4.6,0.4,5.7-0.8c0.3-0.3,0.4-0.7,0.3-1.2C122.7,134.1,122,134.4,120.9,134z"/>
	<path class="st21" d="M115.9,126.9c0,0.3-0.1,0.5,0,0.7c0,0.9-0.4,1.9-0.8,2.7c-0.3,0.7-0.9,1.6-0.9,2.7c1.3,1.4,2.3,1.4,3.4,0.7
		c1.3-0.8,1.7-0.3,3.4,0.2c1.1,0.4,1.8,0.1,2.3-0.4c-0.2-1.1-1.2-2.5-1.2-3.7c-0.1-1.3-0.5-2.9-0.7-3.6
		C119.7,125.1,117.8,125.6,115.9,126.9z"/>
	<path class="st22" d="M147,130.1c-1.1,0.7-3.2,0.7-3.6-2.4c-0.4-3.1-1.7-3.4-3-4.3c-1-0.7-1.4-1.4-1.6-2.5c-0.3,0.5-0.4,1-0.3,1.4
		c0.4,1.5,3.5,2.9,3.7,4.5s0.6,4.2,2.2,4.7c1.6,0.4,5.1-0.1,5.5-0.2c0.3-0.1,0.5-0.4,0.3-1.2C149.4,130.4,147.9,129.5,147,130.1z"/>
	<path class="st21" d="M146.8,120.9c-0.1-1.2-0.4-2.2-0.7-3.2c-1.1-0.5-1.3,0.6-3.2,2.5c-1.7,1.7-2.2,0.1-2.4-1.6
		c-0.6,0.7-1.4,1.6-1.9,2.4c0.2,1.1,0.6,1.8,1.6,2.5c1.3,0.9,2.6,1.2,3,4.3c0.4,3.1,2.6,3.1,3.6,2.4c0.8-0.6,2.3,0.3,3.1-0.1
		c-0.1-0.3-0.2-0.7-0.5-1.2C148.8,127.2,147.1,123.3,146.8,120.9z"/>
	<path class="st23" d="M117.8,76.4c-5,0.4-4.9-1.7-4.9-1.7s-0.6,0.7-1.5,3.5c0.4,1.2,1.3,1.9,1.3,1.9l2.3,10.5c0,0,1.6,5.6,0.8,8.1
		c-0.8,2.5-1.7,9.1-1.2,12.8c0.5,3.6,2.1,10.6,1.8,12.7c-0.2,1.5-0.5,2.3-0.6,2.9c1.9-1.3,3.8-1.8,5.3-0.6c-0.1-0.2-0.1-0.3-0.1-0.3
		c-0.5-3.8,1-11.5,1.3-14.4c0.3-2.9,0-7.1,1.1-9.5c1.1-2.4,2.3-8,1.8-11.2c-0.5-3.3-0.8-10.7,0.1-11.7c0.2-0.2,0.3-0.3,0.5-0.4
		C124.9,77,122,76.1,117.8,76.4z"/>
	<path class="st23" d="M143,120.2c1.9-1.9,2-3,3.2-2.5c-0.2-0.9-0.4-1.8-0.4-2.8c0-2.1,0.6-8.6,0.5-11.5c0-2.9-0.3-4.5,0.2-6.3
		c0.5-1.7,0.8-3.9-0.1-6.2c-0.8-1.9-3.6-11.4-5.5-15.9c-1.7,1.8-3.7,2.3-5.6,2.9c-2.2,0.7-4.2,0.3-7.6,1.7c0.4,0.4,0.7,1.1,1.2,1.9
		c1.3,2.7,5.4,7.2,6,7.9c0.6,0.7,4.4,7.4,4.1,8.6c-0.3,1.2-0.4,7.4,0.4,9.7s2.3,9.2,1.8,10.3c-0.1,0.2-0.3,0.5-0.5,0.7
		C140.8,120.3,141.4,121.8,143,120.2z"/>
	<path class="st23" d="M141.7,44.5c0.7-1,0.5-2.1-0.3-2.5c-0.8-0.4-1.2,1-1.4,2.2c-0.1,0.5-0.4,0.9-0.7,1.4c0,0.3,0,0.7,0,1
		c0-0.3,0-0.7,0-1c-0.4,0.6-0.9,1.4-1.1,2.5c0.4-0.2,0.7,1.9,0.7,3.5c0,1.7-0.7,4.2,1.6,4.8c2.3,0.6,4.1-1.3,4.3-3.5
		c0.2-2.3-0.2-3-0.2-3s1.3-1,1.9-1.9c0.7-0.8-1.6,0.3-0.7-1c0.9-1.3,0.4-0.7,0.1-1.4c-0.2-0.8-0.4,0-0.6-0.9
		c-0.1-0.9-0.3-1.3-0.9-0.8c-0.2,0.2-0.4,0.2-0.5,0c-0.8,0.7-2.1,1.8-2.7,2C140.5,46.1,141,45.5,141.7,44.5z"/>
	<path class="st23" d="M140,44.3c0.2-1.2,0.6-2.6,1.4-2.2c0.8,0.4,0.9,1.4,0.3,2.5c-0.7,1-1.2,1.6-0.4,1.4c0.6-0.2,1.9-1.3,2.7-2
		c-0.2-0.2-0.3-0.8-0.3-1.7c0-1.4,0.5-6.8-0.8-8.9c-1.3-2.1-5.1-3.3-5.8-3.5c-0.3-0.1-1.2-0.4-2-0.7c1.7,4.2,4.2,10.4,4.2,16.4
		C139.6,45.1,139.9,44.7,140,44.3z"/>
	<path class="st24" d="M127,65.7c4.1-0.3,7-0.5,9.7-3.1c0.1-2-0.1-6.1,0.3-8.2c0.4-2.4,0.7-5.3,1.1-6.2c0-0.1,0.1-0.1,0.1-0.2
		c0.2-1.1,0.7-1.8,1.1-2.5c0-6-2.5-12.2-4.2-16.4c-0.8-0.3-1.5-0.5-1.5-0.5s-0.2,0-0.5,0c1,2.2,3,7.6,1.5,11.4
		c-1.8,4.6-7.6,2.5-9.5-0.5c-1.8-2.7-1.8-5.8-1.7-10.6c-0.9,0.1-1.7,0.3-2.3,0.6c-0.1,2-0.1,5.7,0,7.7c0.2,2.9-0.8,6-2.5,6.3
		c0,0,0.2,2.3,0,4.3c-0.1,2-0.9,7.5-0.9,7.5s3.7,2,4.4,2.2c0.8,0.2,2.3,0.2,2.7-0.6c0.4-0.8-0.7-1.5,0.2-1.8c1.3-0.2,2.1,1,2.8,3.8
		c0.6,3,3.6,3.4,4.4,4.9c0,1.4-2.3,0.7-4.1-0.5c-1.9-1.2-2.6-2.1-4.8-1.6c-2.1,0.5-5.1,0.3-9.2-0.8c-0.1,0.2-0.1,0.6-0.3,1
		C117.1,64.1,123.8,66,127,65.7z"/>
	<path class="st23" d="M125.2,39.6c1.9,3,7.7,5,9.5,0.5c1.5-3.8-0.5-9.2-1.5-11.4c-1.6-0.1-6.5-0.2-9.7,0.3
		C123.4,33.8,123.4,36.8,125.2,39.6z"/>
	<path class="st23" d="M123.4,61.8c2.2-0.5,2.9,0.5,4.8,1.6c1.9,1.2,4.1,1.8,4.1,0.5c-0.8-1.5-3.8-1.9-4.4-4.9
		c-0.7-2.8-1.5-4.1-2.8-3.8c-0.9,0.3,0.2,1-0.2,1.8c-0.4,0.8-2,0.8-2.7,0.6c-0.8-0.2-4.4-2.2-4.4-2.2s0.8-5.6,0.9-7.5
		c0.1-2,0-4.3,0-4.3c1.7-0.3,2.6-3.3,2.5-6.3c-0.1-2.1-0.1-5.8,0-7.7c0,0,0,0,0,0c-2.9,1.3-5.8,2.5-7.2,4.5c-1.3,2.1-2,4.5-2.1,7.2
		c-0.1,2.7-0.5,8.6-0.5,11.3c0,2.6,0.1,5.2,1.1,6.5c1,1.3,1.9,1.7,1.9,1.7s0,0.1-0.1,0.2C118.3,62.1,121.2,62.2,123.4,61.8z"/>
	<path class="st14" d="M140.9,75c-0.4-0.9-0.7-1.6-1-2c-1.6-2.6-3.4-8.1-3.3-9.7c0-0.2,0-0.4,0-0.7c-2.7,2.6-5.6,2.8-9.7,3.1
		c-3.2,0.3-9.9-1.6-13.1-3.7c-0.3,1.1-0.8,2.7-1.2,3.9c-0.8,2-1.6,10.2-1.5,11.7c0,0.2,0.1,0.4,0.1,0.5c0.9-2.8,1.5-3.5,1.5-3.5
		s-0.1,2.1,4.9,1.7c4.2-0.3,7.1,0.6,8.2,2.4c0.5-0.2,1.1,0,1.7,0.7c3.4-1.3,5.4-1,7.6-1.7C137.3,77.3,139.2,76.8,140.9,75z"/>
	<path class="st23" d="M124.3,29.5c0.9-1.4,0.8-7.4,0.8-8.7c0-1.3,1.2-1.2,2.3-3.2c1.1-2,2-2.5,4-2.3c1.6,0.1,3.3,0.2,4.1,1.4
		c0.2,0.3,0.3,0.7,0.4,1.1c0.2,2.2,0,3.3-0.5,4.2s-0.2,1.8,0,2.4c0.2,0.6-1.6,3.9-2,5c-0.4,1.1-1.6,1.7-3.3,0.6
		c-1.7-1.1-2.2-1.2-2.2-1.2"/>
	<path class="st23" d="M125.1,23.9c-1.2,0-3.3-2.5-1.9-4.2c1.7-0.2,1.9,1.5,1.9,1.5L125.1,23.9z"/>
	<path d="M124.4,23.6c-0.3,1.4-0.6,3.1-0.7,3.7c-0.1,0.6-0.9,0.2-0.8-0.8s0.4-3.8,0.4-3.8L124.4,23.6z"/>
	<path d="M125,41.8c-0.9-3.1-2-4.6-1.7-7s0.4-7.9,0.4-7.9l-0.9-0.4c0,0,0.1,3.8-0.1,5.9s-1,1.9-0.1,4.4
		C123.5,39.4,124.5,42.9,125,41.8z"/>
	<path d="M132.4,30.5c0.2,2.1,0.3,4.1,0.3,6.6c0,2.5,0,3.7,0.2,3.9s0.2-3.2,0.2-5.8c0-2.6,0-5.3,0-5.3L132.4,30.5z"/>
	<path class="st25" d="M139.2,42.1c0.9-0.8,0.8-3.6,0.8-3.6"/>
	<path class="st25" d="M139.5,51.8c1.5,0.5,5-1.9,5-1.9"/>
	<path class="st16" d="M119.3,39.4c-0.6,1.6-0.8,3.5-0.7,4.6"/>
	<path class="st16" d="M113.5,56.3c2-1.3,4.1-1,4.5-0.8"/>
	<path class="st16" d="M124.5,57.5c0.3,0.4,1.2,0.6,1.6,0.5"/>
	<path class="st16" d="M126.4,78.7c0,0,0.7-3.9-0.8-5.3"/>
	<path class="st16" d="M126.6,75.4c0.5-1.8,1.3-2.2,1.3-2.2"/>
	<path class="st16" d="M142.4,97.6c2.6,1.3,3.9,0.2,3.9,0.2"/>
	<path class="st16" d="M117.7,101.2c1.7,1.1,3.6,1.5,5-0.5"/>
	<path class="st16" d="M120.4,49.1c1.4,2,4.7,2.4,6.7,1.6c2-0.8,5.6-0.5,6.6,0.2c1.1,0.6,2.7,0.2,2.9-0.4"/>
	<line class="st16" x1="130.1" y1="30" x2="130" y2="32.6"/>
	<path class="st16" d="M133,21.6c0.3,1.8,0.4,2.8,0.4,3.4c-0.1,0.6-1.1,0.4-2-0.1"/>
	<path class="st16" d="M132.2,26.1c-0.5,0-1.7-0.2-2.3-0.2c-0.6,0-0.9,0.3-0.6,0.7s0.9,1.1,1.7,1.2"/>
	<path class="st16" d="M129,21.3c0.8,0,1.1,0.1,1.1,0.1"/>
	<path class="st16" d="M133.9,21.7c0.5,0.2,1,0,1,0"/>
</g>
<g>
	<g>
		<path class="st26" d="M37,118.1c-0.9-0.3,0-1.5,0.6-2.3c0.5-0.8,0.5-1.8,0.1-1.7c-0.4,0.1-4,1.2-4.6,1.4c-0.6,0.2-0.5-0.3-0.4-0.7
			c0.1-0.4-0.1-0.6-0.5-1c-0.4-0.4,0.1-0.9,0.1-1.6c0-0.8,2.6-2,3.4-2.9c0.8-1,1.8-2.7,2.1-6c0.2-2.8,1.9-6.7,3.1-10
			c-0.9,0.3-3.1,0.7-6.6,0.5c-4.6-0.2-6.2-6.5-4.5-10.3c-0.2,0.2-0.4,0.3-0.6,0.5c-2.8,2.2-6.8,5.5-7.2,10.7
			c-0.4,5.2,4.3,11.8,5.4,14.1c1.1,2.4,5.1,6.2,3.5,10.6c-0.7,2-1.2,4-1.3,5.8c3.3,1.9,5.4,2.2,7.8,1.2c0-0.3,0.1-0.5,0.1-0.7
			c0.5-2.2,2.3-6.4,2.2-8.1c-0.1-1.5,1.1-2.7,1.4-4.1C39.9,115.2,37.7,118.4,37,118.1z"/>
		<path class="st27" d="M66.5,74.9c-0.3-0.1-0.8-0.3-1.2-0.6c-1.6,1.4-3.1,2.4-2.6,3.5c0.5,1.2-0.7,5-3.3,6.9
			c-1.3-2.2-1.4-0.7-1.3-3.7c0.1-2.9,2.3-8.4-2.7-10.8c-3.7,1.4-11.1,5.3-13.3,6.3c-2.4,1.1-9.2,4.7-12.4,6.9
			c-1.7,3.8-0.1,10.1,4.5,10.3c3.6,0.2,5.7-0.3,6.6-0.5c0.2-0.6,0.4-1.2,0.6-1.7c0.7,2.2,3.4,2.9,5.3,3c0.3-1.2,0.6-2.4,1.1-2.6
			c2.5-0.6,4.2-1.9,5.4-2c-0.1,0.3-0.2,0.7-0.3,1.1c1.3,1.7,3.4,2.8,5.7,2.5c0.3-0.8,0.6-1.5,0.7-2c0.5-2.4,3.4-5.1,4.6-6.5
			c1.2-1.4,4.3-3.4,4.7-5.7C69,77,68.7,75.7,66.5,74.9z"/>
		<path class="st17" d="M50.2,102.6c0.1-0.4,0.1-0.9,0.1-1.4C50.3,101.7,50.3,102.2,50.2,102.6C50.2,102.6,50.2,102.6,50.2,102.6
			c0.1-1.2,1.6-7.6,2.8-11.6c-0.1-0.1-0.1-0.1-0.2-0.2c0,0.1,0.1,0.1,0.2,0.2c0.1-0.4,0.2-0.8,0.3-1.1c-1.2,0.1-2.9,1.4-5.4,2
			c-0.5,0.2-0.9,1.4-1.1,2.6c0.5,0,0.9,0,1.2,0c-0.3,0-0.7,0-1.2,0c-0.3,1.3-0.4,2.6-0.5,2.8C46,97.7,50,102.4,50.2,102.6z"/>
		<g>
			<path class="st28" d="M40.9,93.2C40.9,93.2,40.9,93.2,40.9,93.2L40.9,93.2z"/>
			<path class="st29" d="M46.2,97.3c0.1-0.2,0.3-1.5,0.5-2.8c-1.9-0.1-4.5-0.7-5.3-3c-0.2,0.5-0.4,1.1-0.6,1.7
				c-1.3,3.3-2.9,7.2-3.1,10c-0.3,3.3-1.3,5.1-2.1,6c-0.8,1-3.4,2.2-3.4,2.9c0,0.8-0.5,1.3-0.1,1.6c0.4,0.4,0.6,0.6,0.5,1
				c-0.1,0.4-0.2,0.9,0.4,0.7c0.6-0.2,4.1-1.2,4.6-1.4c0.4-0.1,0.4,0.9-0.1,1.7c-0.5,0.8-1.4,2-0.6,2.3c0.7,0.2,2.8-2.9,3.9-4.8
				c0-0.3,0.1-0.5,0-0.8c-0.2-1.8,0.4-4.1,0.4-4.1c0,0,0,0,0,0C42.4,103.5,45,100.5,46.2,97.3C46.2,97.3,46.2,97.3,46.2,97.3z"/>
			<path class="st26" d="M55.8,114.6c-1.2-2.4-2.5-3.9-4.1-3.4c-1.8,0.5-1.9,3.6-2.2,3.9c-0.3,0.3-1.8,0.3-0.3-4.4
				c0-1.3-0.8-2.1,0-4c0.6-1.5,0.9-2.6,1-4c-0.2-0.2-4-4.8-4-5.3c-1.3,3.2-3.8,6.2-4.9,11.1c3.2,4.1,4.9,6.3,5.6,7.1
				c0.7,0.8,0.4,3.6,0,6.8c0,0.3,0,0.6,0,1c1.9,1.1,5.1,1.6,8.2,0.4c0-0.2,0-0.3,0-0.4C55,121.3,55.5,117.2,55.8,114.6z"/>
		</g>
		<path class="st29" d="M53,91c-1.2,4-2.7,10.4-2.8,11.6c0,0,0,0,0,0c-0.2,1.4-0.4,2.5-1,4c-0.8,2,0,2.7,0,4
			c-1.4,4.7,0.1,4.7,0.3,4.4c0.3-0.3,0.4-3.4,2.2-3.9c1.6-0.4,2.9,1.1,4.1,3.4c0.1-0.9,0.2-1.6,0.2-2c0.1-1.6-0.2-4-2-5.7
			c-1.8-1.6-2-1.6,0-4.8c1.5-2.5,3.6-6,4.7-8.6C56.4,93.8,54.2,92.7,53,91z"/>
	</g>
	<path d="M69,61.3c-2.3-3.1-3.8-4.1-6.2-3.8s-4,2-5.1,1.9c-1.5-0.2-5.3-1.3-6.6,3.1c-1.3,4.4-0.2,8,1.6,9.1c3.2-1.6,6.6-2.9,8.3-2.7
		S69,61.3,69,61.3z"/>
	<g>
		<path class="st30" d="M31.5,144.9c-0.5,1.8-1,3.6-1.3,5c-0.4,1.7,1.8,0.6,2.4,1.4c0.5,0.7,3.6,1.7,7,0.7c2.4-0.5,2.8-0.8,2.6-1.4
			c-1.4-2.2-3.9-4.7-5-8C34.6,142.7,32.6,145.5,31.5,144.9z"/>
		<path class="st29" d="M47,123.3c0,3.1,1.5,6.8,1.5,6.8s1.5,5.4,1.3,7.7c-0.1,0.7-0.2,1.7-0.3,2.7c1.7,2.3,3.4,1.8,4.8-1
			c0.3-0.5,0.6-0.9,0.9-1.3c0-0.1-0.1-0.2-0.1-0.4c-0.5-2.5,0.2-11,0.1-14.1C52.1,124.9,48.8,124.5,47,123.3z"/>
		<path class="st29" d="M58.1,81c-0.1,3,0,1.6,1.3,3.7c2.6-1.9,3.8-5.7,3.3-6.9c-0.5-1,1-2,2.6-3.5c-2.5-1.5-6.3-4.9-8.2-4.7
			c-0.4,0-0.9,0.2-1.7,0.5C60.4,72.5,58.2,78,58.1,81z"/>
		<path class="st29" d="M29.4,125.1c-0.2,2.2,0,4.2,0.4,5.6c0.8,2.6,2.5,9.9,2,12.3c-0.1,0.6-0.3,1.3-0.4,1.9
			c1.2,0.6,3.2-2.2,5.7-2.4c-0.2-0.7-0.4-1.5-0.4-2.3c-0.2-4.1,0.1-11.1,0.5-13.9C34.9,127.3,32.7,127,29.4,125.1z"/>
		<path class="st30" d="M49.4,140.4c-0.3,2.1-0.7,4.5-0.9,5.5c-0.3,1.6,3.1,1,3.6,1c0.5,0,7.1,0.2,9.4-0.5c2.3-0.7,3.6-1.6,3.7-2.3
			c-4.9-1.7-9.3-3.5-10.2-6c-0.3,0.3-0.7,0.7-0.9,1.3C52.8,142.2,51.2,142.7,49.4,140.4z"/>
	</g>
	<path class="st28" d="M41.4,91.9c1.7-4.8,5.3-13.2,7.1-15.4"/>
	<path class="st25" d="M33.8,96.8c1.7,2.3,3.4,9.4,3.4,9.4"/>
	<path class="st16" d="M30.3,149.1c0.6,0.8,1.2,0.6,2.3,0.9c1.1,0.2,1.6,1.1,2.8,1.3c1.2,0.2,5.1-0.3,6.2-1.1"/>
	<path class="st16" d="M48.6,145.4c0.7,1,2.9,0.6,5.3,0c2.4-0.5,3.9,0.8,5.5,0.5s5.1-1.4,5.3-1.9"/>
	<path class="st28" d="M53.7,82.5c-3,5.5-6.2,9.3-6.5,10.4"/>
	<path class="st28" d="M51.7,90.4c2.6-0.9,6.9-1.9,9.5-4.1"/>
	<path class="st29" d="M57.2,70.3c0.1-1.6,0.6-3.6,3.8-5.7c3.1-2.1,5.4-3.6,7.5-3.3c1.1,0.3,1.3,2.7,1,3.3s-1,0.7-0.2,2.3
		c0.8,1.6,1.3,2.2,0.5,2.7c-0.5,0.3-0.5,0.3-0.5,0.3s-0.1,1,0.4,1.4c0.4,0.5-0.8,0.6-0.8,0.6s0.6,0.6,0.2,0.9
		c-0.4,0.3,0.5,2.2-1.4,2.6c-2,0.4-6.4-3-6.4-3"/>
	<path class="st28" d="M60.4,69.2c-0.7,0.6-2.2,0.7-2.5-1.2"/>
	<path class="st31" d="M68.1,70.3c0.7-0.2,1.4-0.4,1.4-0.4"/>
	<path class="st32" d="M67.6,71.9c0.6,0,1.6,0,1.6,0"/>
	<polyline class="st28" points="66.9,65.8 65.8,66.2 66.9,66.5 	"/>
	<path class="st28" d="M65,64.4c1.8-0.3,2.7-0.3,3.1,0.2"/>
	<path class="st16" d="M60.4,77.5c1.4,0.1,2.1-0.7,3.4-1.9"/>
</g>
<g>
	<g>
		<path class="st17" d="M199,124.7c0,0.9,0.5,0.2,0.5,0.2c0.3-3.9-0.1-6.4,1.1-6.7c0,0,0,0,0-0.1c-0.3,0-0.6,0.1-0.8,0.1
			c0.2,0,0.5-0.1,0.8-0.1c0.3-3.5-0.2-7.7-0.3-10c-0.1-2.3,0.3-3.7,0.7-4.3c0.5-0.7,0-4.2-0.5-5.4c-1,2.3-1.3,2.4-1.1,4
			c0.2,1.6-0.3,5.3-0.7,7.1c-0.4,1.8-1,5.9-1,8.1c0,1.4-0.1,2.1,0,2.6c0.4,0,0.7,0.1,0.9,0.1c-0.2-0.1-0.5-0.1-0.9-0.1
			c0,0.2,0.1,0.4,0.3,0.6C198.4,121.2,199,123.7,199,124.7z"/>
		<path class="st22" d="M200.6,118.1C200.6,118.2,200.6,118.2,200.6,118.1c-1.2,0.3-0.8,2.9-1.1,6.8c0,0-0.5,0.7-0.5-0.2
			s-0.6-3.5-1-4c-0.1-0.2-0.2-0.3-0.3-0.6c-1.2-0.1-3.1,0.1-4.5,0.4c0,0.1,0,0.1,0,0.2c-0.2,2.6-1.6,1.6-0.7,4
			c0.9,2.5,1.1,7.3,1.3,8.4c0.2,1.2,1,2.6,6.2,1c1.8,1.1,5,1.1,5.9-0.5c0.4-1.1-1.3-7-0.4-9.1c0.9-2.1,1.7-4.8,0.3-5.8
			C203.9,118.1,201.9,118,200.6,118.1z"/>
		<path class="st33" d="M213.2,67.6c0-3.7-0.4-6.6-0.9-8.8c-5.5,1.2-16.8,1-23.4-0.5c-0.6,2-1.8,6.1-1.4,9.4
			c0.4,4,1.2,13.2,3.2,19.2c2,6.1,0.4,13.9,0.4,13.9s-0.6,5.4,0.4,10.5c0.9,4.9,1.8,6.9,1.6,9.4c1.5-0.3,3.3-0.5,4.5-0.4
			c-0.1-0.5,0-1.1,0-2.6c0-2.1,0.6-6.3,1-8.1c0.4-1.8,0.9-5.5,0.7-7.1c-0.2-1.6,0.1-1.7,1.1-4c0.5,1.2,0.9,4.7,0.5,5.4
			c-0.5,0.7-0.8,2-0.7,4.3c0.1,2.3,0.7,6.4,0.3,10c1.3-0.1,5.2,0.5,5.2,0.5c1-3.8,3.6-11.4,3.4-14.4c-0.2-2.9-0.3-10.2,0.8-16
			C211,82.5,213.2,75.1,213.2,67.6z"/>
	</g>
	<path d="M206.8,10.7c0.1,1.6-0.3,3.7,3.5,4.8c3.8,1.1,4.3,5.5,1.4,9.4c-3,3.9-8.9-4.6-8.9-4.6l-0.3-6.9L206.8,10.7z"/>
	<path d="M201.2,15.4h-0.8c-3.1,0-5.6-2.5-5.6-5.6V5.7c0-3.1,2.5-5.6,5.6-5.6h0.8c3.1,0,5.6,2.5,5.6,5.6v4.1
		C206.8,12.9,204.3,15.4,201.2,15.4z"/>
	<g>
		<path class="st34" d="M211.5,29.3c-1.2-1.1-1.7-3.8-1-7.5c-0.7-0.3-1.3-0.5-1.9-0.7c-0.1,1-0.3,2.2-0.6,3.7
			c-1.1,6.1-8.7,6.1-12.4,4.8c-3.2-1.1-3.2-4.6-1.8-8.8c-0.7,0.1-1.5,0.2-2.3,0.4c-1,2.7-0.8,4.7-1.6,6.7c-0.8,2.2-0.9,2.8-0.7,8.8
			c0.2-1,0.3-1.3,0.3-1.3c0.1,4.4,0.7,5.8,1,7.5c0.2,1.7,0.5,2.3,0.7,4.3c0.2,1.9-1.9,2.2-1.3,4.9c0.6,2.7-0.2,4-0.6,5.1
			c-0.1,0.2-0.2,0.5-0.3,1c6.6,1.6,17.9,1.7,23.4,0.5c-0.5-2.3-1.1-4-1.4-5.2c-0.5-2.3-0.6-13.9,1.6-18.4c0,0,0,0.1,0.1,0.1
			C212.8,32.9,212.6,30.3,211.5,29.3z"/>
		<path class="st35" d="M189.9,28c0.8-2,0.5-4.1,1.6-6.7c-2.8,0.5-5.9,1.5-6.6,4.5c-1.1,4.4,0.1,10.4-2.3,15
			c-2.4,4.6-12.8,15.6-14.6,17.3c-1.8,1.7-1.4,5-1.3,5.9c0.1,0.9,1.7,0.4,2.5-0.3c1.7,0.4,4-0.2,3.8-2.2c-0.2-2-0.2-1.8,1-2.9
			c1.2-1.1,11.6-9.3,13.5-15.4c1-3.3,1.5-5.2,1.8-6.2C189,30.8,189.1,30.2,189.9,28z"/>
		<path class="st35" d="M236.3,61.8c-0.6-2.8-3.3-5.5-5.5-7.7c-2.2-2.2-8-10.3-8.5-12.5c-0.5-2.2-4.4-14.1-5.9-16.3
			c-0.7-1.1-3.3-2.4-5.9-3.4c-0.6,3.7-0.1,6.4,1,7.5c1.1,1,1.3,3.6,1.1,6c2.2,5.5,5.4,11.7,8.2,15.1c2.9,3.5,10.5,10.6,10.5,10.6
			c-0.4,2-0.5,3.8,0.7,4c1.2,0.2,3.5,0.5,3.9,1.1c0.4,0.5,1.4-0.5,1.4-1.1C237.3,62.9,236.8,64.5,236.3,61.8z"/>
		<path class="st35" d="M195.5,29.6c3.8,1.3,11.4,1.3,12.4-4.8c0.3-1.5,0.5-2.8,0.6-3.7c-1.9-0.7-3.5-1.2-3.5-1.2
			c-0.4-0.5-0.5-4.3-0.5-4.3l-7.3,0c0,0,0.5,4.3-2.5,5c-0.3,0.1-0.7,0.2-1.2,0.2C192.3,25,192.3,28.5,195.5,29.6z"/>
	</g>
	<g>
		<path class="st35" d="M194.9,9.7v2.2c0,0.6,0.5,1,1,1c0,0,0,0,0,0c-0.1-0.8-0.1-2.2-0.2-4.2C195.2,8.7,194.9,9.1,194.9,9.7z"/>
		<path class="st35" d="M206.1,9.2c-0.1,0-0.1,0-0.2,0c0,1.1-0.1,2.4-0.3,3.6c0.1,0.1,0.3,0.1,0.4,0.1c0.5,0,1-0.4,1-1v-1.8
			C207.1,9.7,206.6,9.2,206.1,9.2z"/>
		<path class="st35" d="M204.4,16c0.5-0.5,0.8-1.2,1-1.9c0.1-0.4,0.2-0.8,0.2-1.2c0.2-1.2,0.2-2.5,0.3-3.6c0-1.3,0-2.4,0-2.8
			c0-0.9,0.1-3-2.3-3.8c-2.4-0.8-3.6-0.9-5.2-0.2c-1.6,0.7-2.7,2.2-2.7,3.4c0,1,0.1,2,0.1,2.8c0,2,0.1,3.4,0.2,4.2
			c0,0.3,0.1,0.5,0.1,0.7c0.3,0.8,1.6,3.1,3.7,3.9c0.3,0.1,0.6,0.2,0.9,0.2"/>
	</g>
	<path class="st16" d="M192.5,39.6c2.5,1,12.1,1.6,15.8,0"/>
	<path class="st16" d="M212.7,33c0.1-1.3,1.8-1.5,1.8-1.5"/>
	<path class="st16" d="M187,31c1.8-0.1,2.2,1,2.2,1.9"/>
	<path class="st25" d="M236.4,64.4c0.6,0.9-1.7-1.5-2.2-3.3c0,1.5-0.7,1.9-1.7,2.4C234.7,63.3,235.7,63.4,236.4,64.4z"/>
	<path class="st25" d="M232.4,61.9c-0.7-0.7-1.6-1.4-1.6-1.4"/>
	<path class="st25" d="M169.8,59.6c0.1,0.9,1.4,2.2,1.7,2.3c-1.9-0.8-3.5-0.8-3.7-0.5C169.4,61,169.8,59.6,169.8,59.6z"/>
	<path class="st36" d="M194.6,26.1c2.7,0.1,4,0.2,4,0.2"/>
	<path class="st36" d="M206.2,25.9c-2.7,0.1-4,0.2-4,0.2"/>
	<circle cx="198.7" cy="8" r="0.4"/>
	<circle cx="203" cy="8" r="0.4"/>
	<path class="st16" d="M198.7,12.6c1.1-0.5,3-0.6,3.8-0.1c-0.2,0.6-1.1,1-2.7,0.8"/>
	<path class="st16" d="M199.5,10.6c0.6,0.2,1.9,0.2,2.2,0"/>
	<path class="st16" d="M197.4,6.2c1.8-0.1,2.9,0.4,2.9,1.3s-0.1,1.9-0.1,1.9"/>
	<path class="st16" d="M201.9,6.7c1-0.4,2.3,0,2.4,0.1"/>
	<path class="st16" d="M167,64.5c1,9.3,10.4,47.4,13,52.1c2.6,4.7,8.7,28.2,21.5,29.9c12.8,1.7,20.7-30.4,20.7-30.4l10.1-33.1
		l4.6-17.2"/>
	<path class="st37" d="M200.4,98.5c0.4-7-0.8-12.3-0.4-15.1c0.4-2.8,0.8-7.9-0.7-10.5c-1.6-2.6-3.9-3.4-4.9-3.3"/>
	<path class="st37" d="M200.3,98.9c-0.1-5.9,1-12.6,0.5-15.4c-0.4-2.8-0.8-7.9,0.7-10.5c1.6-2.6,3.9-3.4,4.9-3.3"/>
	<path d="M200.5,91.7c0.6-4.5,0.3-10.1-0.1-12C199.9,83.3,200.1,88.7,200.5,91.7z"/>
	<path class="st22" d="M199.9,134.2c0.3-1.9,0.2-2.5-0.4-4.7c-0.6-2-0.4-4.6-0.4-4.6"/>
	<path class="st22" d="M193.1,120.8c0.7,2,1.4,5.4,1.6,7.1c0.2,1.7,0.6,3.5-0.4,4.2"/>
	<path class="st16" d="M197.7,120.2c-0.3,3.6,0.4,8.4,0.8,9.5s1.3,1.6,1.3,1.6"/>
	<path class="st16" d="M200.6,118.1c0.8,1.5,0.3,6.6,0.2,7.4c0,0.8,0.2,3.6,0.3,4.3c0.1,0.5-1,1.4-1,1.4"/>
	<path class="st16" d="M205.7,118.7c0,1.4-0.7,3.7-1.2,5c-0.5,1.4-0.5,4.9-0.4,5.5c0.2,0.6,0.9,1.3,1.4,1.4"/>
	<path class="st16" d="M193.6,131.9c0.5,2.7,6.1,2.3,6.5,0.1"/>
	<path class="st16" d="M205.7,131.4c0.6,3-5.1,3.5-5.6,0.9"/>
	<line class="st16" x1="194.3" y1="126.1" x2="198" y2="126.9"/>
	<line class="st16" x1="194.8" y1="128.2" x2="198.2" y2="129.1"/>
	<line class="st16" x1="194.9" y1="130.3" x2="198" y2="128.3"/>
	<line class="st16" x1="194.9" y1="128.2" x2="197.6" y2="126"/>
	<line class="st16" x1="200.8" y1="125.8" x2="204.1" y2="127.1"/>
	<line class="st16" x1="201" y1="128.2" x2="204.3" y2="129.2"/>
	<line class="st16" x1="201.1" y1="129.5" x2="204" y2="127.7"/>
	<line class="st16" x1="200.9" y1="127.2" x2="204.4" y2="125.4"/>
</g>
<g>
	<path class="st16" d="M354.2,130.3"/>
	<path class="st18" d="M373.3,32.2c-0.3,0.1-0.5,0.2-0.8,0.3c-4.5,1.5-6.6,2.3-9.4,3c-2.8,0.7-9.6,2.4-12.9,0.2
		c-2.3-1.5-6.2-2.6-9-3.8c0.2,3.9-0.8,8.8-2,11.7c0.8,0.8,1.5,1.4,2.3,1.9c2.9,1.8,4.1,1.2,3.8,4.9c-0.3,3.7-0.1,6.4-0.6,12.9
		c-0.4,5.2-0.1,8.3-0.1,10.9c6.2,2.4,19.3,2.3,30.7-2.3c-0.2-3.5-0.4-7,0.3-10.7c0.9-5.3,2.5-16.6,3.7-19.1
		C374.2,40.3,373.4,35.9,373.3,32.2z"/>
	<path class="st29" d="M341.1,31.9c-1.3-0.5-2.3-1.1-2.9-1.8c-1.7-2-5.1-5.9-6.7-7.6c-1.7-1.7-6.6-7.5-6.6-8.7
		c-0.1-1.2,0.8-1.8,1-3.5c0.2-1.8,0.6-2.7-1.4-3.4c-2-0.7-3.8-0.7-4.5,0.7s-0.6,2.4-0.4,3.8s2.7,7,4.1,10.4c1.4,3.4,3.5,9,7.6,12.9
		c3,3,5.6,6.4,7.9,8.7C340.3,40.6,341.3,35.8,341.1,31.9z"/>
	<path class="st29" d="M392.3,4.5c-1.8-0.6-2.8-1.5-3.8-0.6c-1,0.8-2.4,1.7-1.9,3.1c0.5,1.5,1.5,3.2,0.6,5.6
		c-0.8,2.4-2.1,5.2-3.1,6.9c-1,1.8-2.3,3.1-2.9,5c-0.6,1.8-0.6,2.5-2.6,3.7c-1.8,1.1-1.6,2.6-5.3,4c0.1,3.8,0.9,8.2,5.9,9.9
		c0,0,0-0.1,0.1-0.1c1.2-2.3,5.4-9,6.1-10.6c0.7-1.7,6.2-6.4,6.6-16.2c0.5-3.3,1.8-5.1,2.1-7C394.5,6.2,394,5,392.3,4.5z"/>
	<path class="st29" d="M358.1,104c-0.5-0.2-4.7,3.6-10,0.8c0.6,2.1,0,4,0.5,5.4c0.6,1.6,2.4,4.3,3.1,6c0.7,1.5,2.8,9.2,3.4,13.7
		c1.7,1,3.7,0.6,5.1-0.3c-0.2-1.6-0.3-3.5-0.3-4.4c0.2-1.9,1-6.1,0.6-8.6c0.6,4.2,1.1,7.8,1.7,9.3c0.6,1.5,2.5,6.1,2.5,8.2
		c0,0.3,0,0.6,0,0.9c2.1-0.6,4.5-0.9,6.1-0.8c-0.2-0.7-0.6-1.3-0.2-4.7c0.5-4.9,1.1-6,0.6-10c-0.5-4,0.3-9.1,1.1-13.9
		c0.1-0.4,0.1-0.8,0.2-1.2C369,105.8,361.9,106.4,358.1,104z"/>
	<path class="st30" d="M344.5,74.2c0,0.7,0,1.4-0.1,2c-1.2,10,2.4,25.4,3.5,27.8c0.1,0.3,0.2,0.5,0.3,0.8c5.3,2.9,9.5-1,10-0.8
		c3.8,2.4,10.9,1.8,14.7,0.4c0.8-4.5,1.9-9.6,2.1-13.9c0.2-4.6,0.7-9,0.6-13.9c-0.1-1.6-0.2-3.1-0.3-4.7
		C363.8,76.5,350.6,76.6,344.5,74.2z"/>
	<path class="st16" d="M325,10.5c-0.4-2-1.1-3.5-1.5-3.6c-0.5-0.1-1.2,0.6-0.6,2.3c-0.9,0.7-1.8,0.9-2.4,0.9"/>
	<path class="st16" d="M388,4.2c1.4-0.3,2.1,0.3,1.2,1.3c-0.8,1.1-0.1,1.2,0.8,1.8c0.9,0.6,2.5,1.1,2.9,0.9"/>
	<path class="st30" d="M352.3,32.2c-2.3-0.5-2.1-0.1-2.8-2c-0.7-1.9-0.8-1.2-0.5-3.3c0.3-2.1,0.3-2.1,0.8-3.4s1.1-1.9,2.1-3
		s2.4-0.6,3.2-1.5s1.5,0.6,2.4,0.5c0.9-0.1,0.7-1.8,2.4-0.9c1.7,0.9-0.8,1.8,1.3,2.5c2.2,0.6,3.2,1.1,3.5,2.4s2.4,0.5,1.7,1.8
		c-0.7,1.3-0.9,2.4-0.7,4.2c0.2,1.8,0.9,4.1-2.2,4.3S352.3,32.2,352.3,32.2z"/>
	<g>
		<path class="st29" d="M354.1,38.9c0.5,1.1,2.7-0.5,4-1.1c1.2-0.6,2.8-0.8,4-6.6c-0.1,0-0.1,0-0.1-0.2c0-0.5,0.5-1.7-0.5-3.3
			s-1.1-0.9-1.5-2.3c-0.4-1.4-2.9-1.3-4.3-0.6c-1.4,0.7-3,0.7-3,0.7c-1.6,3.3-1.2,6.2-1.2,7c0.1,0.6,0.2,2.6,0.6,4.5
			C353.5,37.1,353.7,38,354.1,38.9z"/>
		<path class="st29" d="M363.3,30.6c-0.4,0.1-0.8,0.5-1,0.6c0.1,1,0.6,2,1.2,2.6c0.2-0.5,0.3-0.7,0.4-1.2
			C364.2,31.6,364,30.4,363.3,30.6z"/>
		<path class="st38" d="M362.2,31.2c-1.2,5.7-2.8,6-4,6.6c-1.3,0.6-3.5,2.2-4,1.1c-0.4-0.9-0.6-1.8-1.9-1.8c0.2,0.8,0.5,1.7,0.9,2.3
			c1.3,2.1,3.6,2.3,5.4,1.5s3.9-1.6,4.4-4.6c0.2-1.5,0.5-2.1,0.6-2.6c-0.7-0.7-1.1-1.7-1.2-2.6C362.3,31.2,362.2,31.2,362.2,31.2z"
			/>
	</g>
	<path class="st16" d="M354.6,36.2c0.8,0.4,2.2,0,2.2,0"/>
	<path class="st25" d="M353.1,39.5c-0.3,2.9-0.5,5,1.7,7.3"/>
	<path class="st16" d="M380.4,29c0.1-2.2,0.7-4.5,0.7-4.5"/>
	<path class="st16" d="M325.1,12.6c-0.5,1.8-1.6,2.4-1.6,2.4"/>
	<path class="st16" d="M387.5,9.8c0.2,1.6,1.2,3,1.2,3"/>
	<path class="st16" d="M360.8,116.6c-0.2-1.6-2.6-9-2.7-12.6c0,0-0.7-6.3-0.6-8.4c0-2,0.2-5.5,2.7-8.6"/>
	<path class="st16" d="M355.7,86.3c1.3,2.3,1.7,9,1.7,9"/>
	<circle class="st30" cx="358.2" cy="31.1" r="0.4"/>
	<circle class="st30" cx="353.7" cy="31.4" r="0.4"/>
	<path class="st16" d="M355.1,30.7c0.2,0.9,0.2,2.5-0.3,3.1c-0.5,0.6,0.9,0.7,1.7,0.4"/>
	<g>
		<path class="st39" d="M360.4,129.6c-1.5,0.9-3.5,1.3-5.1,0.3c0.1,0.6,0.1,1.1,0.2,1.5c-0.4,2.9-1.1,2.1-2.6,3.6
			c-1.5,1.5-2.9,1.7-4.6,3c-0.7,0.6-1.2,1.2-1.4,1.8c4-0.4,12-3.1,14.7-3.5c-0.1-1.6-0.8-3.9-0.8-3.9S360.6,131.2,360.4,129.6z"/>
		<path class="st22" d="M347.5,141.6c1.2,0.5,4.7-0.7,8.2-2c2.3-0.9,5.5-1,5.8-2.2c0.1-0.3,0.1-0.6,0-1c-2.6,0.4-10.7,3.1-14.7,3.5
			C346.6,140.7,346.8,141.4,347.5,141.6z"/>
	</g>
	<g>
		<path class="st39" d="M375,144.1c-0.3-0.7-0.7-1.4-1.2-2.3c-1.1-1.9-2.4-4.6-2.5-6.6c0-0.6-0.1-0.9-0.2-1.2c-1.6,0-4,0.3-6.1,0.8
			c0.1,1.5,0.4,2.5,0.3,4c-0.1,1.8-0.3,2.9-0.5,4.3c-0.1,0.5-0.1,0.9-0.1,1.3C366.9,146.1,371.4,145.5,375,144.1z"/>
		<path class="st22" d="M364.8,144.7c0.1,0.8,0.4,1.6,1.4,2.2c1.5,0.9,7.8,0,8.8-0.7c0.6-0.4,0.5-1.1,0.1-2
			C371.4,145.5,366.9,146.1,364.8,144.7z"/>
	</g>
	<path class="st16" d="M362.7,110c1.8,1.6,4.8,0.8,6.2-0.2"/>
	<path class="st16" d="M351.2,110c2.5,1.2,5.2-0.2,5.2-0.2"/>
	<path class="st25" d="M370.3,33.1c-1,2.9-1.7,5.6-0.7,7.3"/>
	<path class="st25" d="M365.5,34.8c-0.6,1.6-1.5,5.7,1.2,8.1"/>
	<path class="st25" d="M344.6,68.5c1.6,3,7.6,3.1,8.9,3"/>
	<path class="st25" d="M343.1,42.1c1.6,2.2,2.2,5.8,2.1,8.2"/>
</g>
<g>
	<path class="st0" d="M388.2,48.9c-0.8,0.8-1.7,1.2-2.8,1.2c-1.1,0-2-0.4-2.8-1.2c-0.8-0.8-1.2-1.7-1.2-2.8c0-1.1,0.4-2,1.2-2.8
		s1.7-1.2,2.8-1.2s2,0.4,2.8,1.2s1.2,1.7,1.2,2.8C389.4,47.2,389,48.1,388.2,48.9z M383,43.5c-0.7,0.7-1,1.5-1,2.4
		c0,1,0.3,1.8,1,2.4c0.7,0.7,1.5,1,2.4,1c1,0,1.8-0.3,2.4-1c0.7-0.7,1-1.5,1-2.4s-0.3-1.8-1-2.4c-0.7-0.7-1.5-1-2.4-1
		C384.5,42.5,383.7,42.9,383,43.5z M385.3,43.8c0.5,0,0.9,0.1,1.2,0.2c0.5,0.2,0.7,0.6,0.7,1.1c0,0.4-0.1,0.7-0.4,0.9
		c-0.2,0.1-0.4,0.2-0.6,0.2c0.3,0.1,0.6,0.2,0.8,0.4c0.2,0.2,0.2,0.5,0.2,0.7v0.3c0,0.1,0,0.2,0,0.3c0,0.1,0,0.2,0,0.2v0.1h-0.7l0,0
		l0,0v-0.1v-0.3c0-0.5-0.1-0.8-0.4-1c-0.2-0.1-0.4-0.1-0.9-0.1h-0.6v1.7h-0.8V44h1.5V43.8z M386.2,44.5c-0.2-0.1-0.5-0.2-0.9-0.2
		h-0.7V46h0.7c0.3,0,0.6,0,0.7-0.1c0.3-0.1,0.5-0.3,0.5-0.7C386.5,44.9,386.4,44.6,386.2,44.5z"/>
</g>
</svg>
